<?xml version="1.0" encoding="utf-8"?>
<!-- Generator: Adobe Illustrator 20.1.0, SVG Export Plug-In . SVG Version: 6.00 Build 0)  -->
<!DOCTYPE svg PUBLIC "-//W3C//DTD SVG 1.1//EN" "http://www.w3.org/Graphics/SVG/1.1/DTD/svg11.dtd">
<svg version="1.1" id="Layer_1" xmlns="http://www.w3.org/2000/svg" xmlns:xlink="http://www.w3.org/1999/xlink" x="0px" y="0px"
	 viewBox="0 0 841.9 595.3" style="enable-background:new 0 0 841.9 595.3;" xml:space="preserve">
<style type="text/css">
	.st0{fill-rule:evenodd;clip-rule:evenodd;fill:#E30613;}
	.st1{fill-rule:evenodd;clip-rule:evenodd;fill:#DADADA;}
	.st2{fill-rule:evenodd;clip-rule:evenodd;fill:#FFFFFF;}
	.st3{fill-rule:evenodd;clip-rule:evenodd;fill:#9D9D9C;}
	.st4{fill-rule:evenodd;clip-rule:evenodd;stroke:#000000;stroke-width:0.5669;stroke-miterlimit:22.9256;}
	.st5{clip-path:url(#SVGID_2_);fill-rule:evenodd;clip-rule:evenodd;fill:#E30613;}
	.st6{clip-path:url(#SVGID_2_);fill-rule:evenodd;clip-rule:evenodd;fill:#E20614;}
	.st7{clip-path:url(#SVGID_2_);fill-rule:evenodd;clip-rule:evenodd;fill:#E00714;}
	.st8{clip-path:url(#SVGID_2_);fill-rule:evenodd;clip-rule:evenodd;fill:#DF0716;}
	.st9{clip-path:url(#SVGID_2_);fill-rule:evenodd;clip-rule:evenodd;fill:#DD0816;}
	.st10{clip-path:url(#SVGID_2_);fill-rule:evenodd;clip-rule:evenodd;fill:#DC0816;}
	.st11{clip-path:url(#SVGID_2_);fill-rule:evenodd;clip-rule:evenodd;fill:#DA0917;}
	.st12{clip-path:url(#SVGID_2_);fill-rule:evenodd;clip-rule:evenodd;fill:#D80A18;}
	.st13{clip-path:url(#SVGID_2_);fill-rule:evenodd;clip-rule:evenodd;fill:#D60A18;}
	.st14{clip-path:url(#SVGID_2_);fill-rule:evenodd;clip-rule:evenodd;fill:#D50B18;}
	.st15{clip-path:url(#SVGID_2_);fill-rule:evenodd;clip-rule:evenodd;fill:#D30B19;}
	.st16{clip-path:url(#SVGID_2_);fill-rule:evenodd;clip-rule:evenodd;fill:#D10C19;}
	.st17{clip-path:url(#SVGID_2_);fill-rule:evenodd;clip-rule:evenodd;fill:#D00C1A;}
	.st18{clip-path:url(#SVGID_2_);fill-rule:evenodd;clip-rule:evenodd;fill:#CE0C1A;}
	.st19{clip-path:url(#SVGID_2_);fill-rule:evenodd;clip-rule:evenodd;fill:#CD0C1B;}
	.st20{clip-path:url(#SVGID_2_);fill-rule:evenodd;clip-rule:evenodd;fill:#CB0D1B;}
	.st21{clip-path:url(#SVGID_2_);fill-rule:evenodd;clip-rule:evenodd;fill:#C90D1B;}
	.st22{clip-path:url(#SVGID_2_);fill-rule:evenodd;clip-rule:evenodd;fill:#C80E1C;}
	.st23{clip-path:url(#SVGID_2_);fill-rule:evenodd;clip-rule:evenodd;fill:#C60E1C;}
	.st24{clip-path:url(#SVGID_2_);fill-rule:evenodd;clip-rule:evenodd;fill:#C50E1C;}
	.st25{clip-path:url(#SVGID_2_);fill-rule:evenodd;clip-rule:evenodd;fill:#C30E1D;}
	.st26{clip-path:url(#SVGID_2_);fill-rule:evenodd;clip-rule:evenodd;fill:#C10F1D;}
	.st27{clip-path:url(#SVGID_2_);fill-rule:evenodd;clip-rule:evenodd;fill:#BF0F1D;}
	.st28{clip-path:url(#SVGID_2_);fill-rule:evenodd;clip-rule:evenodd;fill:#BE0F1E;}
	.st29{clip-path:url(#SVGID_2_);fill-rule:evenodd;clip-rule:evenodd;fill:#BC0F1E;}
	.st30{clip-path:url(#SVGID_2_);fill-rule:evenodd;clip-rule:evenodd;fill:#BB0F1E;}
	.st31{clip-path:url(#SVGID_2_);fill-rule:evenodd;clip-rule:evenodd;fill:#B90F1E;}
	.st32{clip-path:url(#SVGID_2_);fill-rule:evenodd;clip-rule:evenodd;fill:#B80F1F;}
	.st33{clip-path:url(#SVGID_2_);fill-rule:evenodd;clip-rule:evenodd;fill:#B6101F;}
	.st34{clip-path:url(#SVGID_2_);fill-rule:evenodd;clip-rule:evenodd;fill:#B5101F;}
	.st35{clip-path:url(#SVGID_2_);fill-rule:evenodd;clip-rule:evenodd;fill:#B31020;}
	.st36{clip-path:url(#SVGID_2_);fill-rule:evenodd;clip-rule:evenodd;fill:#B11020;}
	.st37{clip-path:url(#SVGID_2_);fill-rule:evenodd;clip-rule:evenodd;fill:#B01020;}
	.st38{clip-path:url(#SVGID_2_);fill-rule:evenodd;clip-rule:evenodd;fill:#AE1020;}
	.st39{clip-path:url(#SVGID_2_);fill-rule:evenodd;clip-rule:evenodd;fill:#AC1020;}
	.st40{clip-path:url(#SVGID_2_);fill-rule:evenodd;clip-rule:evenodd;fill:#AB1020;}
	.st41{clip-path:url(#SVGID_2_);fill-rule:evenodd;clip-rule:evenodd;fill:#A91020;}
	.st42{clip-path:url(#SVGID_2_);fill-rule:evenodd;clip-rule:evenodd;fill:#A81021;}
	.st43{clip-path:url(#SVGID_2_);fill-rule:evenodd;clip-rule:evenodd;fill:#A61021;}
	.st44{clip-path:url(#SVGID_2_);fill-rule:evenodd;clip-rule:evenodd;fill:#A51021;}
	.st45{clip-path:url(#SVGID_2_);fill-rule:evenodd;clip-rule:evenodd;fill:#A31021;}
	.st46{clip-path:url(#SVGID_2_);fill-rule:evenodd;clip-rule:evenodd;fill:#A21221;}
	.st47{clip-path:url(#SVGID_2_);fill-rule:evenodd;clip-rule:evenodd;fill:#A01220;}
	.st48{fill-rule:evenodd;clip-rule:evenodd;}
	.st49{fill-rule:evenodd;clip-rule:evenodd;fill:#C6C6C6;stroke:#000000;stroke-width:0.5669;stroke-miterlimit:22.9256;}
	.st50{fill:#FFFFFF;}
	.st51{fill-rule:evenodd;clip-rule:evenodd;fill:#FEE300;}
</style>
<circle class="st0" cx="421.5" cy="297.9" r="280.5"/>
<g>
	<path class="st1" d="M420.2,30.3c147.6,0,267.2,119.6,267.2,267.2c0,147.6-119.6,267.2-267.2,267.2C272.6,564.7,153,445,153,297.5
		C153,149.9,272.6,30.3,420.2,30.3L420.2,30.3z"/>
	<path class="st2" d="M420.2,37.8c143.4,0,259.7,116.3,259.7,259.7c0,92.4-48.3,173.5-121,219.5c67.6-47.4,111.8-126.4,111.8-215.8
		c0-145-116.3-262.6-259.7-262.6c-6.5,0-12.9,0.2-19.2,0.7C401.1,38.3,410.6,37.8,420.2,37.8L420.2,37.8z"/>
	<path class="st3" d="M420,557c-143.4,0-259.7-116.3-259.7-259.7c0-92.4,48.3-173.5,121-219.5c-67.6,47.4-111.8,126.4-111.8,215.8
		c0,145,116.3,262.6,259.7,262.6c6.5,0,12.9-0.2,19.2-0.7C439,556.5,429.5,557,420,557L420,557z"/>
</g>
<g>
	<path class="st4" d="M420.2,57.3c133.4,0,241.5,107.5,241.5,240.1c0,132.6-108.1,240.1-241.5,240.1
		c-133.4,0-241.5-107.5-241.5-240.1C178.7,164.8,286.8,57.3,420.2,57.3L420.2,57.3z"/>
	<g>
		<defs>
			<path id="SVGID_1_" d="M543.2,321.5H185.9c12.1,118,112.4,210.2,234.3,210.2c116.6,0,213.4-84.3,232.2-195l-109.2,0.9V321.5
				L543.2,321.5z"/>
		</defs>
		<clipPath id="SVGID_2_">
			<use xlink:href="#SVGID_1_"  style="overflow:visible;"/>
		</clipPath>
		<path class="st5" d="M423,426.6c0-2.1-1.7-3.9-3.9-3.9s-3.9,1.7-3.9,3.9c0,2.1,1.7,3.9,3.9,3.9S423,428.7,423,426.6L423,426.6z"/>
		<path class="st5" d="M421.7,426.6c0,1.4-1.2,2.6-2.6,2.6c-1.4,0-2.6-1.2-2.6-2.6c0-1.4,1.2-2.6,2.6-2.6
			C420.6,424,421.7,425.1,421.7,426.6L421.7,426.6z M425.6,426.6c0-3.6-2.9-6.4-6.4-6.4c-3.6,0-6.4,2.9-6.4,6.4
			c0,3.6,2.9,6.4,6.4,6.4C422.7,433,425.6,430.1,425.6,426.6L425.6,426.6z"/>
		<path class="st5" d="M424.3,426.6c0,2.8-2.3,5.2-5.2,5.2c-2.8,0-5.2-2.3-5.2-5.2c0-2.8,2.3-5.2,5.2-5.2
			C422,421.4,424.3,423.7,424.3,426.6L424.3,426.6z M428.2,426.6c0-5-4-9-9-9c-5,0-9,4-9,9c0,5,4,9,9,9
			C424.1,435.6,428.2,431.5,428.2,426.6L428.2,426.6z"/>
		<path class="st5" d="M426.9,426.6c0,4.3-3.5,7.7-7.7,7.7s-7.7-3.5-7.7-7.7s3.5-7.7,7.7-7.7S426.9,422.3,426.9,426.6L426.9,426.6z
			 M430.7,426.6c0-6.4-5.2-11.6-11.6-11.6s-11.6,5.2-11.6,11.6s5.2,11.6,11.6,11.6S430.7,433,430.7,426.6L430.7,426.6z"/>
		<path class="st5" d="M429.5,426.6c0,5.7-4.6,10.3-10.3,10.3c-5.7,0-10.3-4.6-10.3-10.3c0-5.7,4.6-10.3,10.3-10.3
			C424.8,416.2,429.5,420.9,429.5,426.6L429.5,426.6z M433.3,426.6c0-7.8-6.3-14.2-14.2-14.2c-7.8,0-14.2,6.3-14.2,14.2
			c0,7.8,6.3,14.2,14.2,14.2C427,440.7,433.3,434.4,433.3,426.6L433.3,426.6z"/>
		<path class="st5" d="M432,426.6c0,7.1-5.8,12.9-12.9,12.9c-7.1,0-12.9-5.8-12.9-12.9c0-7.1,5.8-12.9,12.9-12.9
			C426.3,413.7,432,419.4,432,426.6L432,426.6z M435.9,426.6c0-9.2-7.5-16.8-16.7-16.8c-9.3,0-16.8,7.5-16.8,16.8
			s7.5,16.8,16.8,16.8C428.4,443.3,435.9,435.8,435.9,426.6L435.9,426.6z"/>
		<path class="st5" d="M434.6,426.6c0,8.5-6.9,15.5-15.5,15.5c-8.5,0-15.5-6.9-15.5-15.5c0-8.5,6.9-15.5,15.5-15.5
			C427.7,411.1,434.6,418,434.6,426.6L434.6,426.6z M438.5,426.6c0-10.7-8.7-19.3-19.3-19.3s-19.3,8.7-19.3,19.3s8.7,19.3,19.3,19.3
			S438.5,437.2,438.5,426.6L438.5,426.6z"/>
		<path class="st5" d="M437.2,426.6c0,10-8.1,18-18,18c-10,0-18-8.1-18-18c0-10,8.1-18,18-18C429.1,408.5,437.2,416.6,437.2,426.6
			L437.2,426.6z M441.1,426.6c0-12.1-9.8-21.9-21.9-21.9c-12.1,0-21.9,9.8-21.9,21.9c0,12.1,9.8,21.9,21.9,21.9
			C431.2,448.5,441.1,438.6,441.1,426.6L441.1,426.6z"/>
		<path class="st5" d="M439.8,426.6c0,11.4-9.2,20.6-20.6,20.6c-11.4,0-20.6-9.2-20.6-20.6c0-11.4,9.2-20.6,20.6-20.6
			C430.5,405.9,439.8,415.2,439.8,426.6L439.8,426.6z M443.6,426.6c0-13.5-11-24.5-24.5-24.5c-13.5,0-24.5,11-24.5,24.5
			s11,24.5,24.5,24.5C432.7,451,443.6,440.1,443.6,426.6L443.6,426.6z"/>
		<path class="st5" d="M442.3,426.6c0,12.8-10.4,23.2-23.2,23.2c-12.8,0-23.2-10.4-23.2-23.2s10.4-23.2,23.2-23.2
			C432,403.4,442.3,413.7,442.3,426.6L442.3,426.6z M446.2,426.6c0-14.9-12.1-27.1-27.1-27.1c-14.9,0-27.1,12.1-27.1,27.1
			c0,14.9,12.1,27.1,27.1,27.1C434.1,453.6,446.2,441.5,446.2,426.6L446.2,426.6z"/>
		<path class="st5" d="M444.9,426.6c0,14.2-11.5,25.8-25.8,25.8c-14.2,0-25.8-11.5-25.8-25.8c0-14.2,11.5-25.8,25.8-25.8
			C433.4,400.8,444.9,412.3,444.9,426.6L444.9,426.6z M448.8,426.6c0-16.4-13.3-29.6-29.6-29.6c-16.4,0-29.6,13.3-29.6,29.6
			c0,16.4,13.3,29.6,29.6,29.6C435.5,456.2,448.8,442.9,448.8,426.6L448.8,426.6z"/>
		<path class="st5" d="M447.5,426.6c0,15.7-12.7,28.3-28.3,28.3c-15.7,0-28.3-12.7-28.3-28.3s12.7-28.3,28.3-28.3
			C434.8,398.2,447.5,410.9,447.5,426.6L447.5,426.6z M451.4,426.6c0-17.8-14.4-32.2-32.2-32.2c-17.8,0-32.2,14.4-32.2,32.2
			c0,17.8,14.4,32.2,32.2,32.2C436.9,458.8,451.4,444.3,451.4,426.6L451.4,426.6z"/>
		<path class="st5" d="M450.1,426.6c0,17.1-13.8,30.9-30.9,30.9s-30.9-13.8-30.9-30.9s13.8-30.9,30.9-30.9S450.1,409.5,450.1,426.6
			L450.1,426.6z M453.9,426.6c0-19.2-15.6-34.8-34.8-34.8s-34.8,15.6-34.8,34.8s15.6,34.8,34.8,34.8S453.9,445.8,453.9,426.6
			L453.9,426.6z"/>
		<path class="st5" d="M452.6,426.6c0,18.5-15,33.5-33.5,33.5c-18.5,0-33.5-15-33.5-33.5c0-18.5,15-33.5,33.5-33.5
			C437.7,393.1,452.6,408,452.6,426.6L452.6,426.6z M456.5,426.6c0-20.6-16.7-37.4-37.4-37.4c-20.6,0-37.4,16.7-37.4,37.4
			c0,20.6,16.7,37.4,37.4,37.4C439.8,463.9,456.5,447.2,456.5,426.6L456.5,426.6z"/>
		<path class="st5" d="M455.2,426.6c0,19.9-16.2,36.1-36.1,36.1c-19.9,0-36.1-16.2-36.1-36.1s16.2-36.1,36.1-36.1
			C439.1,390.5,455.2,406.6,455.2,426.6L455.2,426.6z M459.1,426.6c0-22.1-17.9-39.9-39.9-39.9c-22.1,0-39.9,17.9-39.9,39.9
			s17.9,39.9,39.9,39.9C441.2,466.5,459.1,448.6,459.1,426.6L459.1,426.6z"/>
		<path class="st5" d="M457.8,426.6c0,21.3-17.3,38.7-38.7,38.7c-21.3,0-38.7-17.3-38.7-38.7c0-21.3,17.3-38.7,38.7-38.7
			C440.5,387.9,457.8,405.2,457.8,426.6L457.8,426.6z M461.7,426.6c0-23.5-19-42.5-42.5-42.5c-23.5,0-42.5,19-42.5,42.5
			s19,42.5,42.5,42.5C442.6,469.1,461.7,450,461.7,426.6L461.7,426.6z"/>
		<path class="st5" d="M460.4,426.6c0,22.8-18.5,41.2-41.2,41.2c-22.8,0-41.2-18.5-41.2-41.2c0-22.8,18.5-41.2,41.2-41.2
			C441.9,385.3,460.4,403.8,460.4,426.6L460.4,426.6z M464.2,426.6c0-24.9-20.2-45.1-45.1-45.1s-45.1,20.2-45.1,45.1
			c0,24.9,20.2,45.1,45.1,45.1S464.2,451.5,464.2,426.6L464.2,426.6z"/>
		<path class="st5" d="M463,426.6c0,24.2-19.6,43.8-43.8,43.8c-24.2,0-43.8-19.6-43.8-43.8c0-24.2,19.6-43.8,43.8-43.8
			C443.3,382.7,463,402.4,463,426.6L463,426.6z M466.8,426.6c0-26.3-21.3-47.7-47.7-47.7c-26.3,0-47.7,21.3-47.7,47.7
			s21.3,47.7,47.7,47.7C445.5,474.2,466.8,452.9,466.8,426.6L466.8,426.6z"/>
		<path class="st5" d="M465.5,426.6c0,25.6-20.8,46.4-46.4,46.4c-25.6,0-46.4-20.8-46.4-46.4s20.8-46.4,46.4-46.4
			C444.8,380.2,465.5,400.9,465.5,426.6L465.5,426.6z M469.4,426.6c0-27.8-22.5-50.2-50.2-50.2c-27.8,0-50.2,22.5-50.2,50.2
			c0,27.8,22.5,50.2,50.2,50.2C446.9,476.8,469.4,454.3,469.4,426.6L469.4,426.6z"/>
		<path class="st5" d="M468.1,426.6c0,27-21.9,49-49,49c-27,0-49-21.9-49-49c0-27,21.9-49,49-49
			C446.2,377.6,468.1,399.5,468.1,426.6L468.1,426.6z M472,426.6c0-29.2-23.7-52.8-52.8-52.8s-52.8,23.7-52.8,52.8
			c0,29.2,23.7,52.8,52.8,52.8S472,455.7,472,426.6L472,426.6z"/>
		<path class="st5" d="M470.7,426.6c0,28.5-23.1,51.5-51.5,51.5c-28.5,0-51.5-23.1-51.5-51.5s23.1-51.5,51.5-51.5
			C447.6,375,470.7,398.1,470.7,426.6L470.7,426.6z M474.6,426.6c0-30.6-24.8-55.4-55.4-55.4c-30.6,0-55.4,24.8-55.4,55.4
			c0,30.6,24.8,55.4,55.4,55.4C449.7,482,474.6,457.1,474.6,426.6L474.6,426.6z"/>
		<path class="st5" d="M473.3,426.6c0,29.9-24.2,54.1-54.1,54.1c-29.9,0-54.1-24.2-54.1-54.1s24.2-54.1,54.1-54.1
			C449,372.4,473.3,396.7,473.3,426.6L473.3,426.6z M477.1,426.6c0-32-26-58-58-58c-32,0-58,26-58,58s26,58,58,58
			C451.2,484.5,477.1,458.6,477.1,426.6L477.1,426.6z"/>
		<path class="st5" d="M475.8,426.6c0,31.3-25.4,56.7-56.7,56.7s-56.7-25.4-56.7-56.7c0-31.3,25.4-56.7,56.7-56.7
			S475.8,395.2,475.8,426.6L475.8,426.6z M479.7,426.6c0-33.4-27.1-60.6-60.6-60.6c-33.4,0-60.6,27.1-60.6,60.6
			c0,33.4,27.1,60.6,60.6,60.6C452.6,487.1,479.7,460,479.7,426.6L479.7,426.6z"/>
		<path class="st5" d="M478.4,426.6c0,32.7-26.5,59.3-59.3,59.3c-32.7,0-59.3-26.5-59.3-59.3s26.5-59.3,59.3-59.3
			C451.9,367.3,478.4,393.8,478.4,426.6L478.4,426.6z M482.3,426.6c0-34.9-28.3-63.1-63.1-63.1c-34.9,0-63.1,28.3-63.1,63.1
			s28.3,63.1,63.1,63.1C454,489.7,482.3,461.4,482.3,426.6L482.3,426.6z"/>
		<path class="st5" d="M481,426.6c0,34.2-27.7,61.8-61.8,61.8c-34.2,0-61.8-27.7-61.8-61.8c0-34.2,27.7-61.8,61.8-61.8
			C453.3,364.7,481,392.4,481,426.6L481,426.6z M484.9,426.6c0-36.3-29.4-65.7-65.7-65.7c-36.3,0-65.7,29.4-65.7,65.7
			s29.4,65.7,65.7,65.7C455.4,492.3,484.9,462.8,484.9,426.6L484.9,426.6z"/>
		<path class="st5" d="M483.6,426.6c0,35.6-28.8,64.4-64.4,64.4c-35.6,0-64.4-28.8-64.4-64.4c0-35.6,28.8-64.4,64.4-64.4
			C454.7,362.1,483.6,391,483.6,426.6L483.6,426.6z M487.4,426.6c0-37.7-30.6-68.3-68.3-68.3c-37.7,0-68.3,30.6-68.3,68.3
			c0,37.7,30.6,68.3,68.3,68.3C456.9,494.8,487.4,464.3,487.4,426.6L487.4,426.6z"/>
		<path class="st5" d="M486.1,426.6c0,37-30,67-67,67c-37,0-67-30-67-67c0-37,30-67,67-67C456.2,359.6,486.1,389.5,486.1,426.6
			L486.1,426.6z M490,426.6c0-39.1-31.7-70.9-70.9-70.9c-39.1,0-70.9,31.7-70.9,70.9s31.7,70.9,70.9,70.9
			C458.3,497.4,490,465.7,490,426.6L490,426.6z"/>
		<path class="st5" d="M488.7,426.6c0,38.4-31.2,69.6-69.6,69.6c-38.4,0-69.6-31.1-69.6-69.6s31.1-69.6,69.6-69.6
			C457.6,357,488.7,388.1,488.7,426.6L488.7,426.6z M492.6,426.6c0-40.6-32.9-73.4-73.4-73.4c-40.6,0-73.4,32.9-73.4,73.4
			c0,40.6,32.9,73.4,73.4,73.4C459.7,500,492.6,467.1,492.6,426.6L492.6,426.6z"/>
		<path class="st5" d="M491.3,426.6c0,39.8-32.3,72.2-72.2,72.2c-39.8,0-72.2-32.3-72.2-72.2c0-39.8,32.3-72.2,72.2-72.2
			C459,354.4,491.3,386.7,491.3,426.6L491.3,426.6z M495.2,426.6c0-42-34-76-76-76c-42,0-76,34-76,76c0,42,34,76,76,76
			C461.1,502.6,495.2,468.5,495.2,426.6L495.2,426.6z"/>
		<path class="st5" d="M493.9,426.6c0,41.3-33.5,74.7-74.7,74.7c-41.3,0-74.7-33.5-74.7-74.7s33.5-74.7,74.7-74.7
			C460.4,351.8,493.9,385.3,493.9,426.6L493.9,426.6z M497.7,426.6c0-43.4-35.2-78.6-78.6-78.6c-43.4,0-78.6,35.2-78.6,78.6
			c0,43.4,35.2,78.6,78.6,78.6C462.6,505.1,497.7,470,497.7,426.6L497.7,426.6z"/>
		<path class="st5" d="M496.5,426.6c0,42.7-34.6,77.3-77.3,77.3c-42.7,0-77.3-34.6-77.3-77.3s34.6-77.3,77.3-77.3
			C461.8,349.2,496.5,383.9,496.5,426.6L496.5,426.6z M500.3,426.6c0-44.8-36.3-81.2-81.2-81.2c-44.8,0-81.2,36.3-81.2,81.2
			s36.3,81.2,81.2,81.2C464,507.7,500.3,471.4,500.3,426.6L500.3,426.6z"/>
		<path class="st5" d="M499,426.6c0,44.1-35.8,79.9-79.9,79.9c-44.1,0-79.9-35.8-79.9-79.9c0-44.1,35.8-79.9,79.9-79.9
			C463.3,346.7,499,382.4,499,426.6L499,426.6z M502.9,426.6c0-46.3-37.5-83.7-83.7-83.7c-46.3,0-83.7,37.5-83.7,83.7
			c0,46.3,37.5,83.7,83.7,83.7C465.4,510.3,502.9,472.8,502.9,426.6L502.9,426.6z"/>
		<path class="st5" d="M501.6,426.6c0,45.5-36.9,82.5-82.5,82.5c-45.5,0-82.5-36.9-82.5-82.5s36.9-82.5,82.5-82.5
			C464.7,344.1,501.6,381,501.6,426.6L501.6,426.6z M505.5,426.6c0-47.7-38.6-86.3-86.3-86.3c-47.7,0-86.3,38.6-86.3,86.3
			s38.6,86.3,86.3,86.3C466.8,512.9,505.5,474.2,505.5,426.6L505.5,426.6z"/>
		<path class="st5" d="M504.2,426.6c0,47-38.1,85-85,85c-47,0-85-38.1-85-85c0-47,38.1-85,85-85
			C466.1,341.5,504.2,379.6,504.2,426.6L504.2,426.6z M508.1,426.6c0-49.1-39.8-88.9-88.9-88.9c-49.1,0-88.9,39.8-88.9,88.9
			c0,49.1,39.8,88.9,88.9,88.9C468.2,515.5,508.1,475.6,508.1,426.6L508.1,426.6z"/>
		<path class="st5" d="M506.8,426.6c0,48.4-39.2,87.6-87.6,87.6c-48.4,0-87.6-39.2-87.6-87.6c0-48.4,39.2-87.6,87.6-87.6
			C467.5,338.9,506.8,378.2,506.8,426.6L506.8,426.6z M510.6,426.6c0-50.5-41-91.5-91.5-91.5c-50.5,0-91.5,41-91.5,91.5
			s41,91.5,91.5,91.5C469.7,518,510.6,477.1,510.6,426.6L510.6,426.6z"/>
		<path class="st5" d="M509.3,426.6c0,49.8-40.4,90.2-90.2,90.2c-49.8,0-90.2-40.4-90.2-90.2c0-49.8,40.4-90.2,90.2-90.2
			C469,336.4,509.3,376.7,509.3,426.6L509.3,426.6z M513.2,426.6c0-51.9-42.1-94.1-94.1-94.1c-51.9,0-94.1,42.1-94.1,94.1
			s42.1,94.1,94.1,94.1C471.1,520.6,513.2,478.5,513.2,426.6L513.2,426.6z"/>
		<path class="st5" d="M511.9,426.6c0,51.2-41.5,92.8-92.8,92.8c-51.2,0-92.8-41.5-92.8-92.8c0-51.2,41.5-92.8,92.8-92.8
			C470.4,333.8,511.9,375.3,511.9,426.6L511.9,426.6z M515.8,426.6c0-53.4-43.3-96.6-96.6-96.6c-53.4,0-96.6,43.3-96.6,96.6
			c0,53.4,43.3,96.6,96.6,96.6C472.5,523.2,515.8,479.9,515.8,426.6L515.8,426.6z"/>
		<path class="st5" d="M514.5,426.6c0,52.7-42.7,95.3-95.3,95.3c-52.7,0-95.3-42.7-95.3-95.3c0-52.7,42.7-95.3,95.3-95.3
			C471.8,331.2,514.5,373.9,514.5,426.6L514.5,426.6z M518.4,426.6c0-54.8-44.4-99.2-99.2-99.2c-54.8,0-99.2,44.4-99.2,99.2
			s44.4,99.2,99.2,99.2C473.9,525.8,518.4,481.3,518.4,426.6L518.4,426.6z"/>
		<path class="st5" d="M517.1,426.6c0,54.1-43.8,97.9-97.9,97.9s-97.9-43.8-97.9-97.9s43.8-97.9,97.9-97.9S517.1,372.5,517.1,426.6
			L517.1,426.6z M520.9,426.6c0-56.2-45.6-101.8-101.8-101.8c-56.2,0-101.8,45.6-101.8,101.8c0,56.2,45.6,101.8,101.8,101.8
			C475.4,528.3,520.9,482.8,520.9,426.6L520.9,426.6z"/>
		<path class="st5" d="M519.6,426.6c0,55.5-45,100.5-100.5,100.5c-55.5,0-100.5-45-100.5-100.5c0-55.5,45-100.5,100.5-100.5
			C474.7,326.1,519.6,371,519.6,426.6L519.6,426.6z M523.5,426.6c0-57.6-46.7-104.4-104.4-104.4c-57.6,0-104.4,46.7-104.4,104.4
			c0,57.6,46.7,104.4,104.4,104.4C476.8,530.9,523.5,484.2,523.5,426.6L523.5,426.6z"/>
		<path class="st5" d="M522.2,426.6c0,56.9-46.1,103.1-103.1,103.1c-56.9,0-103.1-46.1-103.1-103.1s46.1-103.1,103.1-103.1
			C476.1,323.5,522.2,369.6,522.2,426.6L522.2,426.6z M526.1,426.6c0-59.1-47.9-106.9-106.9-106.9c-59.1,0-106.9,47.9-106.9,106.9
			c0,59.1,47.9,106.9,106.9,106.9C478.2,533.5,526.1,485.6,526.1,426.6L526.1,426.6z"/>
		<path class="st5" d="M524.8,426.6c0,58.3-47.3,105.7-105.7,105.7s-105.7-47.3-105.7-105.7s47.3-105.7,105.7-105.7
			S524.8,368.2,524.8,426.6L524.8,426.6z M528.7,426.6c0-60.5-49-109.5-109.5-109.5s-109.5,49-109.5,109.5s49,109.5,109.5,109.5
			S528.7,487,528.7,426.6L528.7,426.6z"/>
		<path class="st5" d="M527.4,426.6c0,59.8-48.5,108.2-108.2,108.2c-59.8,0-108.2-48.5-108.2-108.2c0-59.8,48.5-108.2,108.2-108.2
			C478.9,318.3,527.4,366.8,527.4,426.6L527.4,426.6z M531.2,426.6c0-61.9-50.2-112.1-112.1-112.1c-61.9,0-112.1,50.2-112.1,112.1
			c0,61.9,50.2,112.1,112.1,112.1C481.1,538.6,531.2,488.5,531.2,426.6L531.2,426.6z"/>
		<path class="st5" d="M530,426.6c0,61.2-49.6,110.8-110.8,110.8c-61.2,0-110.8-49.6-110.8-110.8S358,315.7,419.1,315.7
			C480.3,315.7,530,365.4,530,426.6L530,426.6z M533.8,426.6c0-63.3-51.3-114.7-114.7-114.7c-63.3,0-114.7,51.3-114.7,114.7
			s51.3,114.7,114.7,114.7C482.5,541.2,533.8,489.9,533.8,426.6L533.8,426.6z"/>
		<path class="st5" d="M532.5,426.6c0,62.6-50.8,113.4-113.4,113.4c-62.6,0-113.4-50.8-113.4-113.4c0-62.6,50.8-113.4,113.4-113.4
			C481.8,313.2,532.5,363.9,532.5,426.6L532.5,426.6z M536.4,426.6c0-64.8-52.5-117.2-117.2-117.2c-64.8,0-117.2,52.5-117.2,117.2
			s52.5,117.2,117.2,117.2C483.9,543.8,536.4,491.3,536.4,426.6L536.4,426.6z"/>
		<path class="st5" d="M535.1,426.6c0,64-51.9,116-116,116c-64,0-116-51.9-116-116c0-64,51.9-116,116-116
			C483.2,310.6,535.1,362.5,535.1,426.6L535.1,426.6z M539,426.6c0-66.2-53.6-119.8-119.8-119.8c-66.2,0-119.8,53.6-119.8,119.8
			c0,66.2,53.6,119.8,119.8,119.8C485.3,546.4,539,492.7,539,426.6L539,426.6z"/>
		<path class="st5" d="M537.7,426.6c0,65.5-53.1,118.5-118.5,118.5c-65.5,0-118.5-53.1-118.5-118.5c0-65.5,53.1-118.5,118.5-118.5
			C484.6,308,537.7,361.1,537.7,426.6L537.7,426.6z M541.5,426.6c0-67.6-54.8-122.4-122.4-122.4c-67.6,0-122.4,54.8-122.4,122.4
			S351.5,549,419.1,549C486.7,549,541.5,494.2,541.5,426.6L541.5,426.6z"/>
		<path class="st5" d="M540.3,426.6c0,66.9-54.2,121.1-121.1,121.1c-66.9,0-121.1-54.2-121.1-121.1s54.2-121.1,121.1-121.1
			C486,305.4,540.3,359.7,540.3,426.6L540.3,426.6z M544.1,426.6c0-69-56-125-125-125c-69,0-125,56-125,125c0,69,56,125,125,125
			C488.2,551.5,544.1,495.6,544.1,426.6L544.1,426.6z"/>
		<path class="st5" d="M542.8,426.6c0,68.3-55.4,123.7-123.7,123.7s-123.7-55.4-123.7-123.7c0-68.3,55.4-123.7,123.7-123.7
			S542.8,358.2,542.8,426.6L542.8,426.6z M546.7,426.6c0-70.4-57.1-127.6-127.6-127.6s-127.6,57.1-127.6,127.6
			c0,70.4,57.1,127.6,127.6,127.6S546.7,497,546.7,426.6L546.7,426.6z"/>
		<path class="st5" d="M545.4,426.6c0,69.7-56.5,126.3-126.3,126.3c-69.7,0-126.3-56.5-126.3-126.3s56.5-126.3,126.3-126.3
			C488.9,300.3,545.4,356.8,545.4,426.6L545.4,426.6z M549.3,426.6c0-71.9-58.3-130.1-130.1-130.1c-71.9,0-130.1,58.3-130.1,130.1
			c0,71.9,58.3,130.1,130.1,130.1C491,556.7,549.3,498.4,549.3,426.6L549.3,426.6z"/>
		<path class="st5" d="M548,426.6c0,71.2-57.7,128.8-128.8,128.8c-71.2,0-128.8-57.7-128.8-128.8S348,297.7,419.1,297.7
			C490.3,297.7,548,355.4,548,426.6L548,426.6z M551.9,426.6c0-73.3-59.4-132.7-132.7-132.7c-73.3,0-132.7,59.4-132.7,132.7
			s59.4,132.7,132.7,132.7C492.4,559.3,551.9,499.8,551.9,426.6L551.9,426.6z"/>
		<path class="st5" d="M550.6,426.6c0,72.6-58.8,131.4-131.4,131.4c-72.6,0-131.4-58.8-131.4-131.4c0-72.6,58.8-131.4,131.4-131.4
			C491.7,295.1,550.6,354,550.6,426.6L550.6,426.6z M554.4,426.6c0-74.7-60.6-135.3-135.3-135.3s-135.3,60.6-135.3,135.3
			c0,74.7,60.6,135.3,135.3,135.3S554.4,501.3,554.4,426.6L554.4,426.6z"/>
		<path class="st5" d="M553.1,426.6c0,74-60,134-134,134c-74,0-134-60-134-134s60-134,134-134C493.2,292.6,553.1,352.5,553.1,426.6
			L553.1,426.6z M557,426.6c0-76.1-61.7-137.9-137.9-137.9c-76.1,0-137.9,61.7-137.9,137.9S343,564.4,419.1,564.4
			C495.3,564.4,557,502.7,557,426.6L557,426.6z"/>
		<path class="st5" d="M555.7,426.6c0,75.4-61.1,136.6-136.6,136.6c-75.4,0-136.6-61.1-136.6-136.6c0-75.4,61.1-136.6,136.6-136.6
			C494.6,290,555.7,351.1,555.7,426.6L555.7,426.6z M559.6,426.6c0-77.6-62.9-140.4-140.4-140.4c-77.6,0-140.4,62.9-140.4,140.4
			S341.6,567,419.1,567C496.7,567,559.6,504.1,559.6,426.6L559.6,426.6z"/>
		<path class="st5" d="M558.3,426.6c0,76.8-62.3,139.2-139.2,139.2S280,503.4,280,426.6c0-76.9,62.3-139.2,139.2-139.2
			S558.3,349.7,558.3,426.6L558.3,426.6z M562.2,426.6c0-79-64-143-143-143c-79,0-143,64-143,143c0,79,64,143,143,143
			C498.1,569.6,562.2,505.5,562.2,426.6L562.2,426.6z"/>
		<path class="st5" d="M560.9,426.6c0,78.3-63.5,141.7-141.7,141.7c-78.3,0-141.7-63.5-141.7-141.7c0-78.3,63.5-141.7,141.7-141.7
			C497.4,284.8,560.9,348.3,560.9,426.6L560.9,426.6z M564.7,426.6c0-80.4-65.2-145.6-145.6-145.6c-80.4,0-145.6,65.2-145.6,145.6
			s65.2,145.6,145.6,145.6C499.6,572.1,564.7,507,564.7,426.6L564.7,426.6z"/>
		<path class="st5" d="M563.5,426.6c0,79.7-64.6,144.3-144.3,144.3c-79.7,0-144.3-64.6-144.3-144.3c0-79.7,64.6-144.3,144.3-144.3
			C498.8,282.2,563.5,346.9,563.5,426.6L563.5,426.6z M567.3,426.6c0-81.8-66.3-148.2-148.2-148.2c-81.8,0-148.2,66.3-148.2,148.2
			s66.3,148.2,148.2,148.2C501,574.7,567.3,508.4,567.3,426.6L567.3,426.6z"/>
		<path class="st5" d="M566,426.6c0,81.1-65.8,146.9-146.9,146.9c-81.1,0-146.9-65.8-146.9-146.9c0-81.1,65.8-146.9,146.9-146.9
			C500.3,279.7,566,345.4,566,426.6L566,426.6z M569.9,426.6c0-83.3-67.5-150.7-150.7-150.7s-150.7,67.5-150.7,150.7
			c0,83.3,67.5,150.7,150.7,150.7S569.9,509.8,569.9,426.6L569.9,426.6z"/>
		<path class="st6" d="M568.6,426.6c0,82.5-66.9,149.5-149.5,149.5c-82.5,0-149.5-66.9-149.5-149.5s66.9-149.5,149.5-149.5
			C501.7,277.1,568.6,344,568.6,426.6L568.6,426.6z M572.5,426.6c0-84.7-68.6-153.3-153.3-153.3c-84.7,0-153.3,68.6-153.3,153.3
			c0,84.7,68.6,153.3,153.3,153.3C503.8,579.9,572.5,511.2,572.5,426.6L572.5,426.6z"/>
		<path class="st7" d="M571.2,426.6c0,84-68.1,152-152,152c-84,0-152-68.1-152-152s68.1-152,152-152
			C503.1,274.5,571.2,342.6,571.2,426.6L571.2,426.6z M575,426.6c0-86.1-69.8-155.9-155.9-155.9c-86.1,0-155.9,69.8-155.9,155.9
			c0,86.1,69.8,155.9,155.9,155.9C505.2,582.5,575,512.7,575,426.6L575,426.6z"/>
		<path class="st8" d="M573.8,426.6c0,85.4-69.2,154.6-154.6,154.6c-85.4,0-154.6-69.2-154.6-154.6c0-85.4,69.2-154.6,154.6-154.6
			C504.5,271.9,573.8,341.2,573.8,426.6L573.8,426.6z M577.6,426.6c0-87.5-71-158.5-158.5-158.5s-158.5,71-158.5,158.5
			c0,87.5,71,158.5,158.5,158.5S577.6,514.1,577.6,426.6L577.6,426.6z"/>
		<path class="st9" d="M576.3,426.6c0,86.8-70.4,157.2-157.2,157.2c-86.8,0-157.2-70.4-157.2-157.2s70.4-157.2,157.2-157.2
			C506,269.4,576.3,339.7,576.3,426.6L576.3,426.6z M580.2,426.6c0-88.9-72.1-161.1-161.1-161.1c-88.9,0-161.1,72.1-161.1,161.1
			c0,88.9,72.1,161.1,161.1,161.1C508.1,587.6,580.2,515.5,580.2,426.6L580.2,426.6z"/>
		<path class="st10" d="M578.9,426.6c0,88.2-71.5,159.8-159.8,159.8c-88.2,0-159.8-71.5-159.8-159.8s71.5-159.8,159.8-159.8
			C507.4,266.8,578.9,338.3,578.9,426.6L578.9,426.6z M582.8,426.6c0-90.4-73.3-163.6-163.6-163.6c-90.4,0-163.6,73.3-163.6,163.6
			c0,90.4,73.3,163.6,163.6,163.6C509.5,590.2,582.8,516.9,582.8,426.6L582.8,426.6z"/>
		<path class="st11" d="M581.5,426.6c0,89.7-72.7,162.3-162.3,162.3s-162.3-72.7-162.3-162.3c0-89.7,72.7-162.3,162.3-162.3
			S581.5,336.9,581.5,426.6L581.5,426.6z M585.4,426.6c0-91.8-74.4-166.2-166.2-166.2c-91.8,0-166.2,74.4-166.2,166.2
			c0,91.8,74.4,166.2,166.2,166.2C510.9,592.8,585.4,518.3,585.4,426.6L585.4,426.6z"/>
		<path class="st12" d="M584.1,426.6c0,91.1-73.8,164.9-164.9,164.9c-91.1,0-164.9-73.8-164.9-164.9s73.8-164.9,164.9-164.9
			C510.2,261.6,584.1,335.5,584.1,426.6L584.1,426.6z M587.9,426.6c0-93.2-75.6-168.8-168.8-168.8s-168.8,75.6-168.8,168.8
			s75.6,168.8,168.8,168.8S587.9,519.8,587.9,426.6L587.9,426.6z"/>
		<path class="st13" d="M586.6,426.6c0,92.5-75,167.5-167.5,167.5c-92.5,0-167.5-75-167.5-167.5c0-92.5,75-167.5,167.5-167.5
			C511.7,259.1,586.6,334,586.6,426.6L586.6,426.6z M590.5,426.6c0-94.6-76.7-171.4-171.4-171.4c-94.6,0-171.4,76.7-171.4,171.4
			c0,94.6,76.7,171.4,171.4,171.4C513.8,597.9,590.5,521.2,590.5,426.6L590.5,426.6z"/>
		<path class="st14" d="M589.2,426.6c0,93.9-76.1,170.1-170.1,170.1c-93.9,0-170.1-76.1-170.1-170.1c0-93.9,76.1-170.1,170.1-170.1
			C513.1,256.5,589.2,332.6,589.2,426.6L589.2,426.6z M593.1,426.6c0-96.1-77.9-173.9-173.9-173.9c-96.1,0-173.9,77.9-173.9,173.9
			c0,96.1,77.9,173.9,173.9,173.9C515.2,600.5,593.1,522.6,593.1,426.6L593.1,426.6z"/>
		<path class="st15" d="M591.8,426.6c0,95.4-77.3,172.6-172.6,172.6s-172.6-77.3-172.6-172.6c0-95.4,77.3-172.6,172.6-172.6
			S591.8,331.2,591.8,426.6L591.8,426.6z M595.7,426.6c0-97.5-79-176.5-176.5-176.5s-176.5,79-176.5,176.5s79,176.5,176.5,176.5
			S595.7,524,595.7,426.6L595.7,426.6z"/>
		<path class="st16" d="M594.4,426.6c0,96.8-78.5,175.2-175.2,175.2c-96.8,0-175.2-78.5-175.2-175.2c0-96.8,78.5-175.2,175.2-175.2
			C515.9,251.3,594.4,329.8,594.4,426.6L594.4,426.6z M598.2,426.6c0-98.9-80.2-179.1-179.1-179.1c-98.9,0-179.1,80.2-179.1,179.1
			c0,98.9,80.2,179.1,179.1,179.1C518.1,605.6,598.2,525.5,598.2,426.6L598.2,426.6z"/>
		<path class="st17" d="M597,426.6c0,98.2-79.6,177.8-177.8,177.8c-98.2,0-177.8-79.6-177.8-177.8c0-98.2,79.6-177.8,177.8-177.8
			C517.3,248.7,597,328.4,597,426.6L597,426.6z M600.8,426.6c0-100.3-81.3-181.7-181.7-181.7c-100.3,0-181.7,81.3-181.7,181.7
			c0,100.3,81.3,181.7,181.7,181.7C519.5,608.2,600.8,526.9,600.8,426.6L600.8,426.6z"/>
		<path class="st18" d="M599.5,426.6c0,99.6-80.8,180.4-180.4,180.4s-180.4-80.8-180.4-180.4s80.8-180.4,180.4-180.4
			S599.5,326.9,599.5,426.6L599.5,426.6z M603.4,426.6c0-101.8-82.5-184.2-184.2-184.2s-184.2,82.5-184.2,184.2
			c0,101.8,82.5,184.2,184.2,184.2S603.4,528.3,603.4,426.6L603.4,426.6z"/>
		<path class="st19" d="M602.1,426.6c0,101-81.9,183-183,183c-101,0-183-81.9-183-183c0-101,81.9-183,183-183
			C520.2,243.6,602.1,325.5,602.1,426.6L602.1,426.6z M606,426.6c0-103.2-83.6-186.8-186.8-186.8c-103.2,0-186.8,83.6-186.8,186.8
			c0,103.2,83.6,186.8,186.8,186.8C522.3,613.4,606,529.7,606,426.6L606,426.6z"/>
		<path class="st20" d="M604.7,426.6c0,102.5-83.1,185.5-185.5,185.5c-102.5,0-185.5-83.1-185.5-185.5
			c0-102.5,83.1-185.5,185.5-185.5C521.6,241,604.7,324.1,604.7,426.6L604.7,426.6z M608.5,426.6c0-104.6-84.8-189.4-189.4-189.4
			c-104.6,0-189.4,84.8-189.4,189.4c0,104.6,84.8,189.4,189.4,189.4C523.8,616,608.5,531.2,608.5,426.6L608.5,426.6z"/>
		<path class="st21" d="M607.3,426.6c0,103.9-84.2,188.1-188.1,188.1S231,530.4,231,426.6s84.2-188.1,188.1-188.1
			S607.3,322.7,607.3,426.6L607.3,426.6z M611.1,426.6c0-106-86-192-192-192s-192,86-192,192s86,192,192,192
			S611.1,532.6,611.1,426.6L611.1,426.6z"/>
		<path class="st22" d="M609.8,426.6c0,105.3-85.4,190.7-190.7,190.7c-105.3,0-190.7-85.4-190.7-190.7
			c0-105.3,85.4-190.7,190.7-190.7C524.5,235.9,609.8,321.2,609.8,426.6L609.8,426.6z M613.7,426.6c0-107.4-87.1-194.6-194.6-194.6
			c-107.4,0-194.6,87.1-194.6,194.6c0,107.4,87.1,194.6,194.6,194.6C526.6,621.1,613.7,534,613.7,426.6L613.7,426.6z"/>
		<path class="st23" d="M612.4,426.6c0,106.7-86.5,193.3-193.3,193.3c-106.7,0-193.3-86.5-193.3-193.3s86.5-193.3,193.3-193.3
			C525.9,233.3,612.4,319.8,612.4,426.6L612.4,426.6z M616.3,426.6c0-108.9-88.3-197.1-197.1-197.1c-108.9,0-197.1,88.3-197.1,197.1
			s88.3,197.1,197.1,197.1C528,623.7,616.3,535.4,616.3,426.6L616.3,426.6z"/>
		<path class="st24" d="M615,426.6c0,108.2-87.7,195.8-195.8,195.8s-195.8-87.7-195.8-195.8S311,230.7,419.1,230.7
			S615,318.4,615,426.6L615,426.6z M618.9,426.6c0-110.3-89.4-199.7-199.7-199.7s-199.7,89.4-199.7,199.7s89.4,199.7,199.7,199.7
			S618.9,536.8,618.9,426.6L618.9,426.6z"/>
		<path class="st25" d="M617.6,426.6c0,109.6-88.8,198.4-198.4,198.4c-109.6,0-198.4-88.8-198.4-198.4
			c0-109.6,88.8-198.4,198.4-198.4C528.7,228.1,617.6,317,617.6,426.6L617.6,426.6z M621.4,426.6c0-111.7-90.6-202.3-202.3-202.3
			c-111.7,0-202.3,90.6-202.3,202.3c0,111.7,90.6,202.3,202.3,202.3C530.9,628.8,621.4,538.3,621.4,426.6L621.4,426.6z"/>
		<path class="st26" d="M620.1,426.6c0,111-90,201-201,201c-111,0-201-90-201-201c0-111,90-201,201-201
			C530.2,225.6,620.1,315.5,620.1,426.6L620.1,426.6z M624,426.6c0-113.1-91.7-204.9-204.9-204.9c-113.1,0-204.9,91.7-204.9,204.9
			S306,631.4,419.1,631.4C532.3,631.4,624,539.7,624,426.6L624,426.6z"/>
		<path class="st27" d="M622.7,426.6c0,112.4-91.1,203.6-203.6,203.6S215.6,539,215.6,426.6S306.7,223,419.1,223
			S622.7,314.1,622.7,426.6L622.7,426.6z M626.6,426.6c0-114.6-92.9-207.4-207.4-207.4S211.7,312,211.7,426.6S304.6,634,419.1,634
			S626.6,541.1,626.6,426.6L626.6,426.6z"/>
		<path class="st28" d="M625.3,426.6c0,113.9-92.3,206.1-206.1,206.1c-113.9,0-206.1-92.3-206.1-206.1
			c0-113.9,92.3-206.1,206.1-206.1C533,220.4,625.3,312.7,625.3,426.6L625.3,426.6z M629.2,426.6c0-116-94-210-210-210
			c-116,0-210,94-210,210c0,116,94,210,210,210C535.1,636.6,629.2,542.5,629.2,426.6L629.2,426.6z"/>
		<path class="st29" d="M627.9,426.6c0,115.3-93.4,208.7-208.7,208.7c-115.3,0-208.7-93.4-208.7-208.7s93.4-208.7,208.7-208.7
			C534.4,217.8,627.9,311.3,627.9,426.6L627.9,426.6z M631.7,426.6c0-117.4-95.2-212.6-212.6-212.6c-117.4,0-212.6,95.2-212.6,212.6
			s95.2,212.6,212.6,212.6C536.6,639.1,631.7,544,631.7,426.6L631.7,426.6z"/>
		<path class="st30" d="M630.5,426.6c0,116.7-94.6,211.3-211.3,211.3s-211.3-94.6-211.3-211.3s94.6-211.3,211.3-211.3
			S630.5,309.9,630.5,426.6L630.5,426.6z M634.3,426.6c0-118.8-96.3-215.2-215.2-215.2c-118.8,0-215.2,96.3-215.2,215.2
			s96.3,215.2,215.2,215.2C538,641.7,634.3,545.4,634.3,426.6L634.3,426.6z"/>
		<path class="st31" d="M633,426.6c0,118.1-95.8,213.9-213.9,213.9c-118.1,0-213.9-95.8-213.9-213.9c0-118.1,95.8-213.9,213.9-213.9
			C537.3,212.7,633,308.4,633,426.6L633,426.6z M636.9,426.6c0-120.3-97.5-217.7-217.7-217.7c-120.3,0-217.7,97.5-217.7,217.7
			c0,120.3,97.5,217.7,217.7,217.7C539.4,644.3,636.9,546.8,636.9,426.6L636.9,426.6z"/>
		<path class="st32" d="M635.6,426.6c0,119.5-96.9,216.5-216.5,216.5c-119.5,0-216.5-96.9-216.5-216.5s96.9-216.5,216.5-216.5
			C538.7,210.1,635.6,307,635.6,426.6L635.6,426.6z M639.5,426.6c0-121.7-98.6-220.3-220.3-220.3c-121.7,0-220.3,98.6-220.3,220.3
			s98.6,220.3,220.3,220.3C540.8,646.9,639.5,548.2,639.5,426.6L639.5,426.6z"/>
		<path class="st33" d="M638.2,426.6c0,121-98.1,219-219,219c-121,0-219-98.1-219-219s98.1-219,219-219
			C540.1,207.5,638.2,305.6,638.2,426.6L638.2,426.6z M642,426.6c0-123.1-99.8-222.9-222.9-222.9c-123.1,0-222.9,99.8-222.9,222.9
			S296,649.5,419.1,649.5C542.3,649.5,642,549.7,642,426.6L642,426.6z"/>
		<path class="st34" d="M640.8,426.6c0,122.4-99.2,221.6-221.6,221.6s-221.6-99.2-221.6-221.6c0-122.4,99.2-221.6,221.6-221.6
			S640.8,304.2,640.8,426.6L640.8,426.6z M644.6,426.6c0-124.5-100.9-225.5-225.5-225.5S193.7,302,193.7,426.6
			c0,124.5,100.9,225.5,225.5,225.5S644.6,551.1,644.6,426.6L644.6,426.6z"/>
		<path class="st35" d="M643.3,426.6c0,123.8-100.4,224.2-224.2,224.2C295.3,650.7,195,550.4,195,426.6s100.4-224.2,224.2-224.2
			C543,202.4,643.3,302.7,643.3,426.6L643.3,426.6z M647.2,426.6c0-125.9-102.1-228.1-228.1-228.1c-125.9,0-228.1,102.1-228.1,228.1
			s102.1,228.1,228.1,228.1C545.1,654.6,647.2,552.5,647.2,426.6L647.2,426.6z"/>
		<path class="st36" d="M645.9,426.6c0,125.2-101.5,226.8-226.8,226.8c-125.2,0-226.8-101.5-226.8-226.8s101.5-226.8,226.8-226.8
			C544.4,199.8,645.9,301.3,645.9,426.6L645.9,426.6z M649.8,426.6c0-127.4-103.3-230.6-230.6-230.6
			c-127.4,0-230.6,103.3-230.6,230.6s103.3,230.6,230.6,230.6C546.5,657.2,649.8,553.9,649.8,426.6L649.8,426.6z"/>
		<path class="st37" d="M648.5,426.6c0,126.7-102.7,229.3-229.3,229.3S189.8,553.2,189.8,426.6c0-126.7,102.7-229.3,229.3-229.3
			S648.5,299.9,648.5,426.6L648.5,426.6z M652.4,426.6c0-128.8-104.4-233.2-233.2-233.2S185.9,297.8,185.9,426.6
			c0,128.8,104.4,233.2,233.2,233.2S652.4,555.3,652.4,426.6L652.4,426.6z"/>
		<path class="st38" d="M651.1,426.6c0,128.1-103.8,231.9-231.9,231.9c-128.1,0-231.9-103.8-231.9-231.9s103.8-231.9,231.9-231.9
			C547.2,194.6,651.1,298.5,651.1,426.6L651.1,426.6z M654.9,426.6c0-130.2-105.6-235.8-235.8-235.8
			c-130.2,0-235.8,105.6-235.8,235.8c0,130.2,105.6,235.8,235.8,235.8C549.4,662.3,654.9,556.8,654.9,426.6L654.9,426.6z"/>
		<path class="st39" d="M653.6,426.6c0,129.5-105,234.5-234.5,234.5c-129.5,0-234.5-105-234.5-234.5c0-129.5,105-234.5,234.5-234.5
			C548.7,192.1,653.6,297,653.6,426.6L653.6,426.6z M657.5,426.6c0-131.6-106.7-238.4-238.4-238.4c-131.6,0-238.4,106.7-238.4,238.4
			c0,131.6,106.7,238.4,238.4,238.4C550.8,664.9,657.5,558.2,657.5,426.6L657.5,426.6z"/>
		<path class="st40" d="M656.2,426.6c0,130.9-106.1,237.1-237.1,237.1c-130.9,0-237.1-106.1-237.1-237.1
			c0-130.9,106.1-237.1,237.1-237.1C550.1,189.5,656.2,295.6,656.2,426.6L656.2,426.6z M660.1,426.6
			c0-133.1-107.9-240.9-240.9-240.9c-133.1,0-240.9,107.9-240.9,240.9c0,133.1,107.9,240.9,240.9,240.9
			C552.2,667.5,660.1,559.6,660.1,426.6L660.1,426.6z"/>
		<path class="st41" d="M658.8,426.6c0,132.4-107.3,239.6-239.6,239.6c-132.4,0-239.6-107.3-239.6-239.6
			c0-132.4,107.3-239.6,239.6-239.6C551.5,186.9,658.8,294.2,658.8,426.6L658.8,426.6z M662.7,426.6c0-134.5-109-243.5-243.5-243.5
			s-243.5,109-243.5,243.5c0,134.5,109,243.5,243.5,243.5S662.7,561,662.7,426.6L662.7,426.6z"/>
		<path class="st42" d="M661.4,426.6c0,133.8-108.4,242.2-242.2,242.2c-133.8,0-242.2-108.4-242.2-242.2s108.4-242.2,242.2-242.2
			C552.9,184.3,661.4,292.8,661.4,426.6L661.4,426.6z M665.2,426.6c0-135.9-110.2-246.1-246.1-246.1
			c-135.9,0-246.1,110.2-246.1,246.1c0,135.9,110.2,246.1,246.1,246.1C555.1,672.6,665.2,562.5,665.2,426.6L665.2,426.6z"/>
		<path class="st43" d="M664,426.6c0,135.2-109.6,244.8-244.8,244.8c-135.2,0-244.8-109.6-244.8-244.8
			c0-135.2,109.6-244.8,244.8-244.8C554.3,181.8,664,291.4,664,426.6L664,426.6z M667.8,426.6c0-137.3-111.3-248.7-248.7-248.7
			c-137.3,0-248.7,111.3-248.7,248.7c0,137.3,111.3,248.7,248.7,248.7C556.5,675.2,667.8,563.9,667.8,426.6L667.8,426.6z"/>
		<path class="st44" d="M666.5,426.6c0,136.6-110.8,247.4-247.4,247.4S171.8,563.2,171.8,426.6c0-136.6,110.8-247.4,247.4-247.4
			S666.5,289.9,666.5,426.6L666.5,426.6z M670.4,426.6c0-138.8-112.5-251.2-251.2-251.2c-138.8,0-251.2,112.5-251.2,251.2
			c0,138.8,112.5,251.2,251.2,251.2C557.9,677.8,670.4,565.3,670.4,426.6L670.4,426.6z"/>
		<path class="st45" d="M669.1,426.6c0,138-111.9,250-250,250c-138,0-250-111.9-250-250c0-138,111.9-250,250-250
			C557.2,176.6,669.1,288.5,669.1,426.6L669.1,426.6z M673,426.6c0-140.2-113.6-253.8-253.8-253.8c-140.2,0-253.8,113.6-253.8,253.8
			c0,140.2,113.6,253.8,253.8,253.8C559.3,680.4,673,566.7,673,426.6L673,426.6z"/>
		<path class="st45" d="M671.7,426.6c0,139.5-113.1,252.5-252.5,252.5c-139.5,0-252.5-113.1-252.5-252.5
			c0-139.5,113.1-252.5,252.5-252.5C558.6,174,671.7,287.1,671.7,426.6L671.7,426.6z M675.5,426.6c0-141.6-114.8-256.4-256.4-256.4
			c-141.6,0-256.4,114.8-256.4,256.4c0,141.6,114.8,256.4,256.4,256.4C560.8,682.9,675.5,568.2,675.5,426.6L675.5,426.6z"/>
		<path class="st46" d="M674.3,426.6c0,140.9-114.2,255.1-255.1,255.1C278.3,681.7,164,567.4,164,426.6
			c0-140.9,114.2-255.1,255.1-255.1C560,171.4,674.3,285.7,674.3,426.6L674.3,426.6z M678.1,426.6c0-143-115.9-259-259-259
			c-143,0-259,115.9-259,259c0,143,115.9,259,259,259C562.2,685.5,678.1,569.6,678.1,426.6L678.1,426.6z"/>
		<path class="st47" d="M676.8,426.6c0,142.3-115.4,257.7-257.7,257.7c-142.3,0-257.7-115.4-257.7-257.7
			c0-142.3,115.4-257.7,257.7-257.7C561.5,168.9,676.8,284.2,676.8,426.6L676.8,426.6z M679.4,426.6
			c0-143.7-116.5-260.3-260.3-260.3c-143.7,0-260.3,116.5-260.3,260.3c0,143.7,116.5,260.3,260.3,260.3
			C562.9,686.8,679.4,570.3,679.4,426.6L679.4,426.6z"/>
	</g>
	<path class="st2" d="M652.5,335.9l-91.2-4.3l-1.7,4.3H187.9c-2.1-12.5-3.2-25.4-3.2-38.5c0-129.3,105.5-234.2,235.5-234.2
		c130,0,235.5,104.9,235.5,234.2C655.7,310.6,654.6,323.4,652.5,335.9L652.5,335.9z"/>
	<path class="st48" d="M210,204.1c29.6-65.7,89.4-115.1,161.9-130.5c-71.8,18.2-130.2,70-157.7,137.6L210,204.1L210,204.1z"/>
	<path class="st2" d="M343.1,513.2c-75.5-26.7-132.9-91.6-148.7-171.2l7-0.5C216.2,419.8,270.6,484.2,343.1,513.2L343.1,513.2z"/>
	<path class="st4" d="M420.2,149.9c81.9,0,148.4,66,148.4,147.5c0,81.5-66.4,147.5-148.4,147.5c-81.9,0-148.4-66-148.4-147.5
		C271.8,216,338.2,149.9,420.2,149.9L420.2,149.9z"/>
	<path class="st49" d="M421,155.2c78.6,0,142.3,63.7,142.3,142.3c0,78.6-63.7,142.3-142.3,142.3c-78.6,0-142.3-63.7-142.3-142.3
		C278.7,218.9,342.4,155.2,421,155.2L421,155.2z"/>
	<path class="st2" d="M419.2,165.2c-55.4,0-102.8,33.8-122.5,81.9l6-0.8c21.7-47,69.5-79.6,124.9-79.6c5.9,0,11.7,0.4,17.5,1.1
		C436.7,166.1,428,165.2,419.2,165.2L419.2,165.2z"/>
</g>
<g>
	<path class="st48" d="M221.1,215.1l11.9-22.4c1.5-2.8,3.3-5.6,5.5-7.8c1.7-1.7,3.7-3.3,5.9-4.3c1.9-0.8,3.9-1.3,6-1.3
		c1.9,0,3.8,0.3,5.6,0.9c1.7,0.5,3.3,1.2,4.9,2.1c2,1,3.8,2.2,5.7,3.5c0.6,0.4,1.1,0.8,1.7,1.3c0.7,0.5,1.5,1,2.2,1.5
		c1.8,1.3,3.4,2.6,5,4.2c1.5,1.5,2.8,3,4,4.7c1.1,1.6,2,3.4,2.6,5.2l0,0l0,0c0.8,3.1,0.8,6.2,0.3,9.3c-0.6,3.7-2.1,7.3-3.9,10.6
		l-6.8,12.8c-1.2,2.3-2.9,4.8-5.2,6.2c-2.1,1.2-4.3,1.2-6.5,0.1l-0.1,0L225,217.8l0-0.1L221.1,215.1L221.1,215.1z M263.4,212.9
		l-15.3-10.4l-1.4,2.6l15.2,10.4L263.4,212.9L263.4,212.9z M295.3,150.9l8.3,10l1.8-1.9l3.9,2.7l7.6,12l-16.5,17.1
		c-1.8,1.9-4.2,3.8-6.8,4.4c-2.3,0.6-4.5,0.1-6.2-1.6l-0.1-0.1l-0.8-1c-1.1-0.3-2.1-0.8-2.9-1.6l-0.1-0.1l-27-32.5l24.7-25.6
		l3.9,2.7l8.9,10.7l-2.3,2.4L295.3,150.9L295.3,150.9z M358,147.6c-0.9,1.5-2.3,2.8-3.7,3.8c-1.9,1.4-4.3,2.5-6.5,3.4
		c-1.1,0.4-2.1,0.7-3.2,1c-1.2,0.3-2.3,0.6-3.5,0.8c-1.1,0.2-2.2,0.4-3.4,0.5c-0.9,0.1-1.9,0.2-2.8,0.2l-1.1,0l-3.9-2.7L312.9,110
		l21.3-8.2l3.9,2.7l2.3,7.1c-0.4-1.8-0.8-3.6-1.2-5.4c-0.3-1.4-0.7-2.9-1.2-4.3l-0.5-1.4l19.9-7.7l3.9,2.7l2.8,8.6
		c-0.4-1.9-0.8-3.9-1.2-5.8c-0.4-1.9-0.9-3.7-1.4-5.5l-0.4-1.4l22.1-8.5l3.9,2.7l0.4,1.9c0.4,1.9,0.6,3.9,0.9,5.8
		c0.3,2.3,0.6,4.7,0.8,7c0.2,2.5,0.4,5.1,0.6,7.6c0.1,2.5,0.2,5.1,0.3,7.6c0,2.3,0,4.7-0.2,7c-0.1,2-0.4,3.9-0.8,5.8
		c-0.3,1.6-0.8,3.1-1.4,4.5c-0.7,1.6-1.5,3-2.6,4.3c-1.1,1.5-2.6,2.7-4.1,3.8c-1.8,1.3-3.8,2.3-5.9,3.1c-1.3,0.5-2.6,0.9-4,1.2
		c-1.4,0.3-2.7,0.6-4.1,0.8l-3.5,0.2l-1.1,0l-2.7-2.7C359.7,143.8,358.2,147.4,358,147.6L358,147.6z M421.4,127.6l-1.7,7.9
		l-22.7-0.4l-3.9-2.7l16.6-49.1l34.6,0.6l3.9,2.7l-0.7,39.8l2.2-5.6l15.1,4.1l0.1-0.2l-5.7-10.6c-0.7-1.4-1.4-2.8-1.9-4.3
		c-0.5-1.4-0.9-2.9-1.1-4.4c-0.2-1.4-0.1-2.8,0.2-4.1l0,0c0.7-2.4,1.7-4.7,3.4-6.5c1.5-1.6,3.3-2.7,5.4-3.4c2-0.7,4-1,6.1-1
		c2.1,0,4.1,0.2,6.2,0.6c1.9,0.3,3.7,0.7,5.5,1.2c1.1,0.3,2.2,0.6,3.3,1c1.2,0.4,2.3,0.7,3.5,1.1c1.1,0.3,2.2,0.7,3.2,1.1
		c3.1,1.2,4.6,3.3,7.9,4.3l-5,12.7l-13.1-3.5l-0.1,0.2l4.7,8.6c1,1.8,1.9,3.6,2.7,5.5c0.7,1.6,1.2,3.3,1.6,5.1
		c0.3,1.6,0.3,3.2-0.1,4.7l0,0c-0.4,1.5-1,2.9-1.8,4.2l25.7-32.6l21.5,13.5c1.4,0.9,2.7,1.8,4,2.8c2.6,1.7,5.2,3.6,7.3,5.9
		c1.6,1.8,3,3.9,3.9,6.2c0.7,2,1,4,0.9,6.1c-0.1,1.9-0.5,3.8-1.3,5.5c-0.7,1.7-1.5,3.2-2.4,4.7c-1.2,1.9-2.5,3.7-3.9,5.4
		c-1.4,1.7-2.9,3.2-4.5,4.7c-1.5,1.4-3.2,2.6-5,3.6c-1.7,1-3.5,1.8-5.4,2.2l0,0l0,0c-3.1,0.6-6.3,0.4-9.3-0.4
		c-3.7-0.9-7.2-2.6-10.3-4.6l-12.3-7.7c-1-0.6-2.1-1.4-3-2.2l-0.9-0.5c-2.2-1.4-4.6-3.2-5.8-5.6c-1-2-0.9-4,0.1-6
		c-0.3,0.4-0.6,0.7-0.9,1c-1.5,1.5-3.3,2.7-5.3,3.3c-2,0.6-4,1-6.1,1c-2,0-4-0.1-6-0.5c-1.8-0.3-3.6-0.7-5.4-1.2
		c-1.8-0.5-3.6-1-5.4-1.6c-1.8-0.6-3.5-1.2-5.3-1.8c-1.6-0.6-3.1-1.2-4.6-1.8l-1.4-0.6l0.4-1c-0.6-0.2-1.1-0.4-1.7-0.7l0,1.6
		l-22.2-0.4l-3.9-2.7L421.4,127.6L421.4,127.6z M549,186.4l-3.8,2.3l-3.9-2.7l-15.2-16.9l47.3-21.4l3.9,2.7l23.2,25.7l-31.8,28.6
		l4.9-1.7l3.9,2.7l4.1,8.7l3.4-8.5c0.6-1.5,1.2-2.8,2-4.2c0.8-1.3,1.6-2.5,2.7-3.6c0.9-1,2-1.9,3.3-2.5l0,0c2.3-1,4.7-1.7,7.2-1.6
		c2.2,0.1,4.2,0.8,6.1,1.9c1,0.6,2,1.4,2.9,2.2c0.3,0.2,0.7,0.4,1,0.6c1.8,1.1,3.3,2.5,4.7,4.1c1.3,1.6,2.5,3.3,3.5,5.1
		c0.9,1.6,1.8,3.3,2.6,5.1c0.5,1.1,1,2.1,1.4,3.2c0.5,1.1,1,2.3,1.4,3.4c0.4,1.1,0.8,2.1,1.2,3.2c0.3,0.9,0.6,1.7,0.9,2.6l0.5,1.5
		l-13,4.3l-3.9-2.7l-3.1-6.7l-2.5,6.4c-0.7,1.9-1.6,3.8-2.5,5.6c-0.8,1.6-1.8,3.1-2.9,4.5c-1,1.2-2.3,2.2-3.7,2.9l0,0
		c-2.2,1-4.6,1.6-7,1.4c-2.1-0.2-4.1-0.8-6-1.9c-1-0.6-2-1.4-2.9-2.2c-0.3-0.2-0.7-0.4-1-0.6c-1.8-1.1-3.3-2.4-4.7-4
		c-1.3-1.5-2.5-3.2-3.5-4.9c-0.9-1.6-1.8-3.2-2.6-4.9c-0.8-1.7-1.5-3.4-2.3-5.2c-0.7-1.7-1.4-3.4-2-5.2c-0.6-1.6-1.1-3.1-1.6-4.7
		l-0.5-1.5l1-0.3l-1.2-1.3l-0.8,0.7L545,190L549,186.4L549,186.4z"/>
	<path class="st50" d="M223.2,214.6l33.6,22.9c3.4,1.8,6.6-0.1,9.5-5.6l6.8-12.8c3.9-7.4,4.8-13.5,3.5-18.8
		c-2.2-6.6-8.8-12.7-16.4-16.7c-7.2-3.8-17.3-6.1-25.7,9.8L223.2,214.6L223.2,214.6z M265.5,212.3l-3,5.6L240.7,203l2.9-5.5
		L265.5,212.3L265.5,212.3z M311,170.8l-5.8-9.2L295,172.2l-5-6l7.7-8l-6.4-7.6l-7.8,8.1l-4.7-5.8l9.2-9.5l-6.8-8.2l-22.5,23.3
		l26,31.3c2.6,2.5,6.5,1.6,10.8-2.8L311,170.8L311,170.8z"/>
	<path class="st50" d="M359.7,142.2c2.7,0.1,7.7-0.8,11-2.1c8.7-3.3,11.7-8.8,12.9-14.6c2.1-9.6,0.2-30.6-1.6-40.4l-18.9,7.3
		c2.9,10.2,5.5,27.6,5.5,36.5l-0.9,0.3L356.5,95l-16.9,6.5c2.8,8.6,6.3,29.6,5.8,36.3l-0.8,0.3l-11.3-34.2l-18.3,7l16.2,42.1
		c2.9,0.1,8.7-1.1,12.3-2.5c7.9-3,9.9-6.7,10.8-9.8c0.8-3.2,0.8-8.5,0-12.3l0.6-0.2L359.7,142.2L359.7,142.2z"/>
	<path class="st50" d="M410.9,84.9l-15.5,45.9l19.2,0.3l2.4-11.3l6.2,0.1l-0.2,11.3l19,0.3l0.8-46.2L410.9,84.9L410.9,84.9z
		 M423.6,111.2l-5.1-0.1l3.3-16.1l2.1,0L423.6,111.2L423.6,111.2z"/>
	<path class="st50" d="M495.1,97.8c-2.8-1.1-8.4-2.9-12.5-4.1c-8.3-2.2-21.3-4.5-24.7,8c-0.8,3.1,0.5,7.7,2.6,11.5l6.1,11.3l-1,2.2
		l-15.1-4l-3.8,9.7c4.2,1.7,9.8,3.8,15.1,5.2c7.9,2.1,21,4.1,24.2-7.9c1-3.7-0.9-8.5-4-14.2l-5.1-9.3l1-2.1l13,3.5L495.1,97.8
		L495.1,97.8z"/>
	<path class="st50" d="M516,106.5l-25.2,31.9c-2,3.2-0.4,6.6,4.9,9.9l12.2,7.7c7.1,4.4,13.1,5.8,18.5,4.8
		c6.8-1.7,13.2-7.9,17.8-15.2c4.3-6.9,7.2-16.8-8-26.3L516,106.5L516,106.5z M515.3,148.8l-5.4-3.4l16.4-20.7l5.3,3.3L515.3,148.8
		L515.3,148.8z"/>
	<path class="st50" d="M573,149.6l-44.2,20l12.8,14.3l9.9-6l4.1,4.6l-8.4,7.6l12.7,14.1l34.3-30.9L573,149.6L573,149.6z
		 M562.5,176.9l-3.4-3.8l14.1-8.6l1.4,1.6L562.5,176.9L562.5,176.9z"/>
	<path class="st50" d="M620.4,223.1c-0.9-2.8-3.1-8.3-4.9-12.2c-3.6-7.8-10.2-19.2-22-13.7c-2.9,1.3-5.5,5.3-7.2,9.4l-4.7,11.9
		l-2.3,0.7l-6.6-14.1l-9.9,3.4c1.3,4.3,3.4,9.9,5.8,14.9c3.5,7.4,10.4,18.7,21.6,13.5c3.5-1.6,5.9-6.1,8.3-12.1l3.9-9.9l2.3-0.6
		l5.7,12.2L620.4,223.1L620.4,223.1z"/>
	<path class="st0" d="M589.3,234.8c0.9-0.5,1.7-1.2,2.4-1.9c0.9-1.1,1.7-2.4,2.4-3.7c0.9-1.7,1.6-3.5,2.3-5.3l4.3-10.9l5.2-1.4
		l5.7,12.1l6.1-2c0-0.1-0.1-0.2-0.1-0.4c-0.4-1-0.8-2.1-1.2-3.1c-0.4-1.1-0.9-2.2-1.4-3.3c-0.4-1-0.9-2.1-1.4-3.1
		c-0.7-1.6-1.6-3.2-2.5-4.8c-0.9-1.6-2-3.1-3.1-4.5c-1.1-1.3-2.3-2.4-3.8-3.3c-1.3-0.8-2.7-1.2-4.3-1.3c-1.8-0.1-3.7,0.5-5.4,1.2
		c-0.8,0.4-1.5,1-2.1,1.6c-0.8,0.9-1.5,1.9-2.2,2.9c-0.7,1.2-1.3,2.4-1.8,3.6l-5.1,13l-5.2,1.5l-6.5-14l-5.9,2
		c0.3,0.8,0.6,1.7,0.9,2.5c0.6,1.7,1.2,3.4,1.9,5c0.7,1.7,1.4,3.4,2.2,5c0.7,1.6,1.5,3.1,2.4,4.6c0.9,1.6,2,3,3.1,4.4
		c1.1,1.3,2.3,2.4,3.8,3.2c1.3,0.8,2.7,1.2,4.2,1.4C585.9,236.1,587.7,235.6,589.3,234.8L589.3,234.8z"/>
	<path class="st0" d="M572.5,152.3l-39.9,18l9.6,10.6l9.9-6l6.9,7.6l-8.4,7.6l9.7,10.8l31-27.9L572.5,152.3L572.5,152.3z M562.4,180
		l-6.7-7.5l17.9-10.9l4.1,4.6L562.4,180L562.4,180z"/>
	<path class="st0" d="M516.5,109.6l-23.9,30.2c-0.5,0.9-0.6,1.7-0.1,2.6c0.8,1.6,2.9,3.1,4.4,4.1l12.2,7.7c2.8,1.8,6,3.4,9.2,4.2
		c2.5,0.6,5.1,0.8,7.6,0.3c1.5-0.4,3-1,4.4-1.8c1.6-0.9,3-2,4.4-3.2c1.5-1.3,2.8-2.7,4.1-4.2c1.3-1.6,2.5-3.3,3.6-5
		c0.8-1.3,1.5-2.7,2.1-4.1c0.6-1.4,0.9-2.9,1-4.4c0.1-1.5-0.2-3.1-0.7-4.5c-0.6-1.8-1.8-3.5-3.1-4.9c-1.9-2.1-4.3-3.8-6.6-5.3
		L516.5,109.6L516.5,109.6z M515.9,151.9l-9.2-5.8l19.2-24.2l9.1,5.7L515.9,151.9L515.9,151.9z"/>
	<path class="st0" d="M492.2,99.1c-0.1,0-0.2-0.1-0.4-0.1c-1-0.4-2.1-0.7-3.1-1.1c-1.1-0.4-2.3-0.7-3.4-1.1
		c-1.1-0.3-2.2-0.6-3.3-0.9c-1.7-0.5-3.5-0.9-5.2-1.2c-1.8-0.3-3.6-0.5-5.5-0.5c-1.7,0-3.3,0.3-4.9,0.8c-1.5,0.5-2.7,1.3-3.8,2.4
		c-1.3,1.3-2,3.2-2.5,4.9c-0.2,0.9-0.2,1.8-0.1,2.7c0.1,1.2,0.5,2.4,0.9,3.5c0.4,1.3,1,2.5,1.6,3.7l6.7,12.3l-2.2,4.9l-15-4
		l-2.3,5.8c0.8,0.3,1.6,0.6,2.5,0.9c1.7,0.6,3.4,1.2,5.1,1.8c1.7,0.6,3.5,1.1,5.3,1.6c1.7,0.5,3.3,0.8,5,1.1
		c1.8,0.3,3.6,0.4,5.4,0.4c1.7,0,3.3-0.3,4.9-0.8c1.5-0.5,2.7-1.3,3.8-2.4c1.2-1.3,2-3,2.4-4.6c0.3-1,0.2-2.1,0.1-3.1
		c-0.3-1.5-0.7-2.9-1.3-4.2c-0.7-1.8-1.6-3.5-2.5-5.2l-5.6-10.3l2.2-4.9l12.9,3.5L492.2,99.1L492.2,99.1z"/>
	<path class="st0" d="M412.5,87.2l-14,41.5l14.3,0.2l2.4-11.3l10.3,0.2l-0.2,11.3l14.5,0.3l0.7-41.7L412.5,87.2L412.5,87.2z
		 M425.9,113.5l-10.1-0.2l4.2-20.6l6.2,0.1L425.9,113.5L425.9,113.5z"/>
	<path class="st0" d="M380.3,88.3l-14.5,5.6c0.3,1.2,0.6,2.5,0.9,3.8c0.5,2.1,0.9,4.3,1.3,6.5c0.4,2.3,0.8,4.5,1.1,6.8
		c0.3,2.2,0.6,4.5,0.9,6.7c0.2,2,0.4,4.1,0.6,6.2c0.1,1.7,0.2,3.5,0.2,5.2l0,1.6l-4.5,1.7l-11.3-34.2l-12.8,4.9
		c0.2,0.8,0.4,1.7,0.6,2.5c0.5,1.8,0.9,3.7,1.3,5.5c0.4,2,0.8,4,1.2,6.1c0.4,2.1,0.7,4.1,1,6.2c0.3,1.9,0.5,3.9,0.8,5.9
		c0.2,1.7,0.3,3.4,0.4,5.1c0.1,1.3,0.1,2.7,0,4l-0.1,1.4l-4.3,1.7l-11.3-34.2l-14,5.4l14.8,38.5c0.3,0,0.6-0.1,0.8-0.1
		c1-0.1,2.1-0.3,3.1-0.5c1.1-0.2,2.2-0.5,3.2-0.8c1-0.3,1.9-0.5,2.8-0.9c1.9-0.7,4-1.7,5.6-2.9c1-0.7,2-1.7,2.7-2.7
		c0.5-0.8,0.9-1.7,1.1-2.6l0,0l0,0c0.2-0.8,0.3-1.6,0.4-2.4c0.1-1,0.1-2,0.1-3c0-1,0-2.1-0.1-3.1c-0.1-1-0.2-1.9-0.4-2.9l-0.4-1.8
		l4.5-1.7l5.1,14.6c0.5,0,1-0.1,1.4-0.1c1.3-0.2,2.5-0.4,3.7-0.7c1.2-0.3,2.3-0.6,3.5-1c1.7-0.7,3.5-1.5,5-2.6
		c1.2-0.9,2.4-1.9,3.3-3.1c0.8-1.1,1.5-2.2,2.1-3.5c0.5-1.2,0.9-2.5,1.2-3.8c0.4-1.7,0.6-3.5,0.7-5.3c0.2-2.2,0.2-4.5,0.2-6.7
		c0-2.5-0.1-5-0.3-7.4c-0.2-2.5-0.4-5-0.6-7.5c-0.2-2.3-0.5-4.6-0.8-6.9C380.6,90.2,380.4,89.3,380.3,88.3L380.3,88.3z"/>
	<path class="st0" d="M308.2,170.5l-3.4-5.3l-10,10.3l-7.9-9.5l7.7-8l-3.5-4.1l-7.8,8.1l-7.6-9.2l9.2-9.5l-4-4.7l-19.4,20.1
		l24.6,29.6c0.8,0.7,1.6,0.8,2.6,0.6c1.8-0.5,3.7-2.1,5-3.4L308.2,170.5L308.2,170.5z"/>
	<path class="st0" d="M226.1,213.9l31.8,21.7c0.9,0.5,1.7,0.5,2.6-0.1c1.6-0.9,2.9-3.1,3.7-4.7l6.8-12.8c1.6-2.9,2.9-6.2,3.5-9.5
		c0.4-2.5,0.5-5.1-0.2-7.6c-0.5-1.5-1.2-2.9-2.1-4.2c-1-1.5-2.2-2.9-3.5-4.1c-1.4-1.4-2.9-2.6-4.5-3.8c-1.7-1.2-3.4-2.3-5.2-3.2
		c-1.4-0.7-2.8-1.3-4.3-1.8c-1.4-0.5-2.9-0.7-4.4-0.7c-1.6,0-3,0.4-4.5,1c-1.8,0.8-3.3,2.1-4.7,3.4c-1.9,2-3.5,4.5-4.9,7
		L226.1,213.9L226.1,213.9z M268.4,211.6l-5.1,9.6l-25.5-17.5l5.1-9.5L268.4,211.6L268.4,211.6z"/>
</g>
<g>
	<path class="st48" d="M204.4,203.5c3.4,4,5.8,9.6,9.8,14.8c17.2,22.5,39.5,34.5,67.5,36.9c13.1,1.2,26.7,0.3,41.1-5.7
		c-5.2,9.6-10,18-13.7,22.1c-6.4,5.7-17.6,11.5-25.7,18.5c-8.8,12.3-4.1,14.7-1.2,31.1c1.9,10.5,0.4,10.1-1.8,15.9l-92.3-0.3
		c-2.2-12.8-3.3-25.9-3.3-39.3C184.7,264,191.8,232.3,204.4,203.5L204.4,203.5z"/>
	<path class="st2" d="M317.5,254.1c-11.7,3.7-23.5,4.7-36,3.5c-28.7-2.6-51.6-15-69.2-37.9c-1.9-2.5-3.7-5.1-5.6-7.7
		c-1.4-1.9-2.6-3.6-3.8-5c-11.7,27.8-18.2,58.3-18.2,90.4c0,12.5,1,24.8,2.9,36.8l91.1,0.3c0.2-0.5,0.4-1,0.6-1.4
		c0.3-0.6,0.6-1.3,0.8-2c0.9-2.7,0-6.9-0.4-9.6c-0.7-3.8-1.6-7.4-2.6-11.1c-0.7-2.7-1.4-5.6-1.3-8.4c0.1-5.1,2.7-9.4,5.6-13.4
		l0.2-0.2l0.2-0.2c2.7-2.3,5.5-4.4,8.4-6.3c3.1-2.1,6.4-4.2,9.5-6.3c2.6-1.7,5.3-3.6,7.6-5.7c2.2-2.5,4.2-5.7,5.9-8.5
		C314.7,259,316.1,256.6,317.5,254.1L317.5,254.1z"/>
	<path class="st48" d="M250,336.3h29.1c1.8-2.8,2.7-6.4,2.3-10.7c-3,1.5-8.2,2.2-14.2,2.4c-5.2-0.4-9.6-1.1-14.8-1.5
		C252.4,326.2,249.6,336.3,250,336.3L250,336.3z"/>
	<path class="st48" d="M204.1,272.7c7.8,8.7,16.4,15.9,25,20.3c0.2-8,4-17.2,8.8-26.4c-7.6-4.1-15-9.6-21.7-16.7L204.1,272.7
		L204.1,272.7z"/>
	<path class="st48" d="M251.5,326.3c3.3-4.5,3.5-12.7,2.7-25.2c-8.5-0.5-18-3.5-24.7-7.4c-1,4.4-0.5,9.6-0.8,13.6
		c-0.3,3.8-2.5,8.1-2.5,11.3C232.1,322.4,240.9,324.3,251.5,326.3L251.5,326.3z"/>
	<path class="st48" d="M254.6,300.6c7.1,1.1,14.9,1.2,21.9-0.1c0.8-3.6,3-7.7,6-11.2c3-3.5,8.7-6.7,15.1-10.8
		c-6.4,0.3-2.6,1.2-18.4,1.2c-4.1,0-8.5-0.2-12.6-0.5C258.5,284,253.9,291.4,254.6,300.6L254.6,300.6z"/>
	<path class="st48" d="M238.3,266.4c8.8,5.9,17.9,10.8,28.2,11.8c8.1-3.9,14.4-12.1,18-21.4c-9.6-0.3-22.5-3.2-35.5-8.3L238.3,266.4
		L238.3,266.4z"/>
	<path class="st48" d="M195.4,227.5c6.5,9.2,13.8,16.6,20.8,21.6l8.6-17.5c-6.8-5.7-13.8-15.1-21.3-26.1
		C200.5,212.7,197.7,220,195.4,227.5L195.4,227.5z"/>
	<path class="st48" d="M184.8,289.6c4,3.9,8.1,7.5,12,10.7c1.2-8.7,3.5-17.7,6.6-27.4c-5.6-4.6-10.7-9.9-15.3-15.5
		C186.3,267.9,185.2,278.6,184.8,289.6L184.8,289.6z"/>
	<path class="st48" d="M197.1,300.9c-0.8,2.3-1.8,5-2,7.4c-0.5,4.8,0,8.8-1.6,12.9c-0.8,2.1-1.1,3.8-1.7,5.5l11,9.5l17.4,0
		c3.7-4.8,5.3-10.2,5.8-16.9c-5.3-1.6-9.3-3.8-13.6-6.8C206.6,309.4,201.9,305.1,197.1,300.9L197.1,300.9z"/>
	<path class="st48" d="M187.9,336.3h0.7c0.4-2.8,1.4-5.9,2.7-9.4c-2-1.4-3.6-2.9-5.3-4.4C186.5,327.1,187.2,331.7,187.9,336.3
		L187.9,336.3z"/>
</g>
<g>
	<path class="st48" d="M640.9,215.7c-0.6,0.9-1.2,1.7-1.8,2.6c-17.2,22.5-39.5,34.5-67.5,36.9c-13.1,1.2-26.7,0.3-41.1-5.7
		c5.2,9.6,10,18,13.7,22.1c6.4,5.7,17.6,11.5,25.7,18.5c8.8,12.3,4.1,14.7,1.2,31.1c-1.9,10.5-0.4,10.1,1.8,15.9l79.4-0.3
		c2.2-12.8,3.3-25.9,3.3-39.3C655.7,268.7,650.5,241.2,640.9,215.7L640.9,215.7z"/>
	<path class="st2" d="M535.9,254.1c11.7,3.7,23.5,4.7,36,3.5c28.7-2.6,51.6-15,69.2-37.9c0.3-0.4,0.6-0.8,0.9-1.2
		c8.9,24.7,13.7,51.2,13.7,78.9c0,12.5-1,24.9-2.9,36.9l-78.1,0.3c-0.2-0.5-0.4-1-0.6-1.4c-0.3-0.6-0.6-1.3-0.8-2
		c-0.9-2.7,0-6.9,0.4-9.6c0.7-3.8,1.6-7.4,2.6-11.1c0.7-2.7,1.4-5.6,1.3-8.4c-0.1-5.1-2.7-9.4-5.6-13.4l-0.2-0.2l-0.2-0.2
		c-2.7-2.3-5.5-4.4-8.4-6.3c-3.1-2.1-6.4-4.2-9.5-6.3c-2.6-1.7-5.3-3.6-7.6-5.7c-2.2-2.5-4.2-5.7-5.9-8.5
		C538.6,259,537.2,256.6,535.9,254.1L535.9,254.1z"/>
	<path class="st48" d="M603.3,336.3h-29.1c-1.8-2.8-2.7-6.4-2.3-10.7c3,1.5,8.2,2.2,14.2,2.4c5.2-0.4,9.6-1.1,14.8-1.5
		C601,326.2,603.8,336.3,603.3,336.3L603.3,336.3z"/>
	<path class="st48" d="M649.2,272.7c-7.8,8.7-16.4,15.9-25,20.3c-0.2-8-4-17.2-8.8-26.4c7.6-4.1,15-9.6,21.8-16.7L649.2,272.7
		L649.2,272.7z"/>
	<path class="st48" d="M601.9,326.3c-3.3-4.5-3.5-12.7-2.7-25.2c8.5-0.5,18-3.5,24.7-7.4c1,4.4,0.5,9.6,0.8,13.6
		c0.3,3.8,2.5,8.1,2.5,11.3C621.2,322.4,612.4,324.3,601.9,326.3L601.9,326.3z"/>
	<path class="st48" d="M598.7,300.6c-7.1,1.1-14.9,1.2-21.9-0.1c-0.8-3.6-3-7.7-6-11.2c-3-3.5-8.7-6.7-15.1-10.8
		c6.4,0.3,2.6,1.2,18.4,1.2c4.1,0,8.5-0.2,12.6-0.5C594.8,284,599.5,291.4,598.7,300.6L598.7,300.6z"/>
	<path class="st48" d="M615.1,266.4c-8.8,5.9-17.9,10.8-28.2,11.8c-8.1-3.9-14.4-12.1-18-21.4c9.6-0.3,22.5-3.2,35.5-8.3
		L615.1,266.4L615.1,266.4z"/>
	<path class="st48" d="M648.3,239.3c-3.7,3.9-7.5,7.2-11.2,9.9l-8.6-17.5c4.2-3.6,8.5-8.5,13-14.4
		C644.1,224.5,646.4,231.8,648.3,239.3L648.3,239.3z"/>
	<path class="st48" d="M655.6,295c-1.3-7.1-3.3-14.3-5.8-22.1c1.4-1.1,2.8-2.3,4.1-3.6C655,277.7,655.6,286.3,655.6,295L655.6,295z"
		/>
	<path class="st48" d="M652.7,334.4l-2.1,1.8l-17.4,0c-3.7-4.8-5.3-10.2-5.8-16.9c5.3-1.6,9.3-3.8,13.6-6.8c5.4-3,10-7,14.6-11.1
		C655.4,312.7,654.5,323.7,652.7,334.4L652.7,334.4z"/>
</g>
<g>
	<path class="st50" d="M263.2,369.1l-41.7,11l5.8,11.1l9.8-3.5l1.9,3.6l-9.2,4.8l5.7,11l37.3-19.5L263.2,369.1L263.2,369.1z
		 M246.2,387.7l-1.6-3l14-5.1l0.6,1.2L246.2,387.7L246.2,387.7z"/>
	<path class="st50" d="M276.7,392l-29.4,20c-5.2,4.1-3,7.8-1.4,9.9c2.1,2.7,6,4.5,8.9,4.9l-0.4,0.3c-2.1,1.7-0.8,4.5,0.8,6.6
		c2.1,2.7,5.2,4.7,7.3,5.5l6.3-4.2l-1.6-2l27.4-18.6l-7.8-9.8l-27.4,18.6l-2.3-2.8l27.3-18.6L276.7,392L276.7,392z"/>
	<polygon class="st50" points="272.3,450.1 281.9,458.3 304.5,435.2 309.5,439.4 317.2,433.1 296.6,415.6 289.7,422.6 295,427.1 
		272.3,450.1 	"/>
	<path class="st50" d="M303,454.8c-3.9,6.2-8.2,15.8,3.2,23c4.7,2.9,8.8,3.1,12.9,1.8c5.9-1.9,12.2-9.2,15.9-15.2
		c3.3-5.2,8.2-15.6-2.8-22.6c-4.7-2.9-8.7-3.4-13.7-1.6C312.4,442.5,306.3,449.4,303,454.8L303,454.8L303,454.8z M313.6,470.3
		l-3.5-2.2l14.2-19.3l3.5,2.2L313.6,470.3L313.6,470.3z"/>
	<g>
		<path class="st50" d="M469.5,461.4c-1.9,0-5.8,0.5-8.5,1c-5.5,1-13.7,3.6-11.6,15.3c0.5,2.9,2.8,6.2,5.3,8.7l7.2,7.3l0.2,2.2
			l-10,1.9l1,9.4c3,0,6.9-0.3,10.4-0.9c5.2-1,13.4-3.9,11.4-15c-0.6-3.5-3.3-6.7-6.9-10.4l-6-6l-0.2-2.1l8.6-1.6L469.5,461.4
			L469.5,461.4z"/>
		<polygon class="st50" points="489.5,498.5 501.5,494.4 493.2,463.1 499.4,461.1 497.9,451.2 472.4,459.9 474.8,469.4 481.4,467.1 
			489.5,498.5 		"/>
		<path class="st50" d="M528.7,476.2c2.2,3.7,5.7,2.2,7.7,1c2.4-1.4,4.9-3.6,5.9-5.1l-3.5-7.5l-2.3,1.3l-3.1-5.3
			c-1.7-3-3.9-4.4-6.9-3.9c1.4-2.3,3.3-6.7,0.1-12.3c-1.5-2.7-5.2-7.7-14.7-2.2l-13.7,7.9l18.2,38.1l10.9-6.3l-6.7-13.8l2.5-1.4
			L528.7,476.2L528.7,476.2z M519.7,458.8l-3.2,1.8l-4-8.4l3.2-1.9L519.7,458.8L519.7,458.8z"/>
		<path class="st50" d="M528.9,431l20.4,38l9.4-8.2l-5.7-8.7l3-2.6l6.8,7.8l9.3-8.1l-27.6-31.7L528.9,431L528.9,431z M551,443.3
			l-2.5,2.2l-8.2-12.4l1-0.9L551,443.3L551,443.3z"/>
		<path class="st50" d="M551.7,409l25.8,34.6l8.1-9.5l-6.9-7.8l2.6-3.1l7.9,6.7l8-9.4l-32-27.3L551.7,409L551.7,409z M575.4,417.8
			l-2.2,2.5l-9.9-11.1l0.9-1L575.4,417.8L575.4,417.8z"/>
		<polygon class="st50" points="605.2,409 611.4,397.9 584.3,380.2 587.5,374.5 579.9,368.1 566.6,391.7 574.8,397.1 578.2,391 
			605.2,409 		"/>
		<path d="M351.1,496.2c1.2,1.4,4,3.3,6.2,4c5.8,1.9,9.9-0.7,13.2-4.3c5.7-6,14.9-22.4,18.8-30.5l-12.5-4.1
			c-3.5,8.9-10.7,23-15,29.6l-0.6-0.2l11.2-30.8l-11.2-3.7c-2.8,7.7-11.4,24.9-14.8,29.6l-0.5-0.2l11.2-30.8l-12.1-3.9L332.2,490
			c1.3,1.5,4.6,3.5,7.1,4.3c5.2,1.7,8,0.1,9.9-1.9c1.9-1.9,4.5-5.8,6-9l0.4,0.1L351.1,496.2L351.1,496.2z"/>
		<path d="M395.3,465.4L380.5,506l12.4,1.6l2.7-10.1l4,0.5l-1.3,10.3l12.3,1.5l5.3-41.7L395.3,465.4L395.3,465.4z M400.8,490
			l-3.3-0.4l3.8-14.4l1.4,0.2L400.8,490L400.8,490z"/>
		<path d="M443.2,466.5c-1.9-0.2-5.8-0.4-8.6-0.3c-5.6,0.2-14.1,1.6-13.7,13.4c0.1,2.9,1.9,6.6,4,9.4l6.1,8.2l-0.2,2.2l-10.1,0.4
			l-0.4,9.5c2.9,0.4,6.8,0.7,10.4,0.6c5.3-0.2,13.9-1.9,13.4-13.2c-0.1-3.5-2.3-7.2-5.3-11.3l-5-6.8l0.2-2.1l8.8-0.3L443.2,466.5
			L443.2,466.5z"/>
	</g>
</g>
<g>
	<path class="st2" d="M472,292.5c-0.7,0.5-1.6,1.2-2.9,1.9c0.3-0.6,0.6-1.3,1-1.9C470.7,292.5,471.4,292.5,472,292.5L472,292.5z"/>
	<path class="st48" d="M371.3,247.4c0,0,4.6-12.6,4.7-14.7c0.1-2.1,0.3-3.4,1.1-4.3c0.8-0.9,1-1.1,1-1.1s-1.3-11.8,0.3-15.5
		c1.5-3.7,3.8-3.7,3.8-3.7s0.5-2.7,1.6-5.9c1.1-3.2,2.4-5.5,2.4-5.5c-4.3-7.7-2.3-16.8,0.1-23.9l-1.2,0.6c0,0,1.3-2.2,2.6-4.7
		c1.4-2.5,2.6-4.3,5.2-5.7c2.5-1.4-1.8-1.6,0.8-1.9c2.6-0.4,5.9-0.9,9.8,1.5c3.9,2.5,6.2,5.9,6.2,5.9l2.6-1.8c0,0,3.3-11.4,9.6-16.1
		c6.3-4.7,15.3-5.6,22.1-6.2c6.8-0.6,19.7-3.2,32.7,1.2c13.1,4.4,14.7,6.5,18.4,9.1c3.7,2.6,9.4,8.9,9.4,8.9s5.5-1,6.5,2.6
		c1,3.6-0.9,7.4-0.9,7.4s2.1,5.2,1.9,9.5c-0.2,4.3-0.3,6.7,1.3,11.7c1.5,5,2.9,7.7,1.3,10.1c-1.7,2.4-2.9,5.4-4.5,10.7
		c-1.6,5.3-2,5.9-2,5.9s1.9,5.3,7.7,11.7c5.8,6.4,18.6,15.5,20.7,19.1c2.1,3.6,0.5,9-4.5,12.6c-5,3.7-16.2,10.7-29.9,8
		c-13.7-2.7-16.3-6.3-16.3-6.3s-0.6,1-1.9,2.1c-1.3,1.1-2.2,2.1-2.2,2.1s-1.4,5-5.3,8c-3.9,3-6.9,3.8-6.9,3.8s-4.9,4.8-4,9
		s4.8,4.7,7.8,6.7c3.1,2.1,4,3.6,4,3.6s4.3-4.9,10.2-7.4c6-2.5,7.6-3.9,9.5-0.8c1.9,3.1,2.7,4.1,5.7,6.1c3,2.1,7.3,3.3,7,7.1
		c-0.3,3.8,0.2,2.4-1.7,9.9c-1.9,7.5-4.2,11.2-4.2,11.2s2.8,5.7,3.5,9.3c0.7,3.5,0.3,6.1,0.3,6.1s-12.5,11.5-16.1,17.6
		c-3.6,6.1-7,7.5-4.9,22.9c2.1,15.4-0.8,13-1,18c-0.1,5.1,0.2,9.2,1.7,11.3c1.6,2.1,4.8,4.8,4.8,4.8l1.6,1.8
		c-23.7,14.8-48.7,23.7-84.1,21.8c-20.4-1.1-43.6-7.9-64.2-19.4c-15.1-8.5-28.8-19.8-39-32.1c1.2-0.9,5.2-3.3,6.3-4.1
		c-1.5-1.6-2.6-4.5-3.1-6.2c-0.6-1.9-0.8-4.5-0.9-6.6c-0.1-2.9-0.1-5.8-0.1-8.7c0-2.7,0.1-5.5,0.1-8.2c0-1.9,0.1-3.9,0.1-5.8
		c-0.1-7.8,8.8-10.8,15-12.2c1.9-0.4,4-1.2,5.8-1.9c2.8-1,5.5-2.1,8.2-3.3c5.2-2.2,10.4-4.4,15.6-6.7l2.1-1l0.1-0.2
		c1.8-5,3.8-10.1,5.2-13.1c3.4-7.3,5.4-10.9,8-10.5c2.6,0.4,5.9,1.3,8.1,1.5c2.3,0.1,5.5,1.6,6.2,2.6c0.7,1.1,1.9,2.6,1.9,2.6
		s-1.5-5.7-0.2-11.1c1.3-5.4,3.3-6.7,3.3-6.7l-0.2-1.7l-5.8,0.9c0,0,0.1,3.2-0.1,6.6c-0.2,3.4-0.5,4.8-0.5,4.8l-0.9-11.3
		c0,0-2.8,1.2-6.1-0.4c-3.3-1.7-11.4-7-11.4-7s-5,1.8-7.1,1.2c-2.1-0.6-3.1-1.8-3-2.8c0.1-1-0.4-3-0.4-3s-7.2,2.6-11.9,4.8
		c-4.7,2.3-8.4,6.3-8.4,6.3s3.5-5.7,9.8-8.6c6.3-2.9,10.4-4.1,10.4-4.1l-0.2-5.1c0,0-1.2-1.3-6.4-1.4c-5.2-0.1-9.9,1.5-9.9,1.5
		s5-2.5,10.3-2.2c5.2,0.3,6.4,0.5,6.4,0.5s0.7-2.5,1.5-4c0.8-1.6,2-2.9,2-2.9s1.3-4.4,3.4-6.3C361.6,254.4,366.8,252.2,371.3,247.4
		L371.3,247.4z"/>
	<path class="st0" d="M385.1,312.5c0,0-2.6-5.3-4.6-6.5c-2-1.2-3.6-1.1-6.9-1.5c-3.3-0.4-5.9-2.4-7.2,0.7
		c-4.2,10.5-10.7,24-13.7,34.5c0,0,8.2,1.4,8.2,8.5c-0.1,7.1-3.9,13.5-7.5,13.7c-3.7,0.2-5.8-0.9-7-2.1c-1.2-1.3-1.4-2.9-1.4-2.9
		s1,1.6,3.7,2.4c2.7,0.8,5.9-1.7,6.8-7.6c1.9-13-6.7-11.6-8-5.2c-0.9,4.4-0.7,7.2-0.7,7.2l-2-2.8l-3.9,5c0,0,2.4,2.8,3.1,7.2
		c0.6,4.4-0.2,7.9-0.2,7.9l16.2-8.8c0,0,3.8-10.6,7.2-23.1c3.4-12.5,6.5-23.1,8.2-26.5c1.7-3.4,3-4.2,3-4.2l0.8,0.9l-1.5,3.1
		C377.6,312.4,380,311.4,385.1,312.5L385.1,312.5z"/>
	<path class="st2" d="M384.3,271.8c0,0-5.3,2.8-9.2,1.1c-3.9-1.7-4.9-4.2-4.1-6.3c0.8-2.1,1.5-2.6,2.4-2.9c0.9-0.3,1.8-0.9,1.8-0.9
		s-2.7,0.4-7-0.3c-4.3-0.7-6.9-2.2-6.9-2.2s4.9,4.2,2.4,6.9c-2.4,2.8-5,1.8-5,1.8l-0.6-1.2c0,0,4.6,0.7,4.5-2.2
		c-0.1-2.9-1-2.9-2.5-2.5c-1.4,0.4-0.7,2.8-0.7,2.8s-1.4,0.5-1.6-1.8c-0.2-2.3,0.7-4.6,3.7-6.6c3-2,6.1-2.4,9.1-1.2
		c3.1,1.1,3.8,2.1,7.3,2.4c3.5,0.3,5.1,1.5,5.1,1.5l-4.3,1.2l-1.6,1.1c0,0,3.2,0.4,3.6,2.8c0.4,2.4-1.7,3.7-1.7,3.7s0.5-4.4-3.3-4.6
		c-3.8-0.2-3.4,5.3-0.4,6.2c3,0.9,6.2,0.9,9.5-0.6c3.3-1.4,4.2-2.6,4.4-4.1c0.2-1.5,0.4-4.8-5-7.6c-5.4-2.8-5.5-1.9-9.1-2.2
		c-3.5-0.3-8.5-2.9-8.5-2.9s2.3-1,7-5.6c4.7-4.6,13.8-15.4,15.3-19.1c1.5-3.7,2.6-7.4,2.7-11.3c0.1-3.9-0.9-5-0.7-7.8
		c0.3-2.8,3.1-7,5.5-9.3c2.4-2.4,3.3-3.3,3.3-3.3s0.6-0.5-2.8-0.8c-3.3-0.3-7.1,1.9-8.4,3.4c-1.3,1.6,0.8-3,3.6-4.7
		c2.8-1.7,7-2.4,9.5-1.6c2.4,0.8,2.4,1.1,2.4,1.1s0.6-1.6,3.2-4.5c2.5-2.9,7.4-7.7,12.2-10.3c4.8-2.6,7-3,10.3-2.8
		c3.3,0.2,6.2,0.3,11.1,2.2c4.9,1.9,14.7,8,14.7,8l-11,9c0,0-7.3,0.3-10.2,4.5c-2.9,4.3-3.1,5.3-3.1,5.3s3.4-3.8,7.2-4.7
		c3.7-0.9,8.4,0.3,10.9,3.3c2.5,2.9,3,8.8,3,8.8s-6.6-8-14.9-6.3c-8.3,1.7-13.2,3.6-17.6,9.1c-4.4,5.5-4.8,9.4-7.3,16.7
		c-2.4,7.3-4.1,14.7-8.2,17c-4,2.3-4.7,3-6.7,2.2c-2-0.8-3-0.9-3-0.9l0.2,1.6c0,0,2.1-0.9,3.8,4.1c1.7,5,1.2,15.9,1.2,15.9
		s2.2-0.4,3.4-0.7c1.2-0.3-0.3-1.7,2.5-4.3c2.8-2.5,1.7-5.1,9.4-7.7c7.7-2.6,16.7-4,16.7-4s-4.1-0.5-5.3-0.6
		c-1.2-0.1-2.2,0.1-2.2,0.1s2.5-5.9,13.3-10.2c10.8-4.3,19.4-5.5,28.4-4.6c9,0.9,14.1,4.4,14.1,4.4l-4.4-0.5c0,0,3.6,1,5.9,2.8
		c2.3,1.9,1.4,6.3,1.4,6.3l-4.5-3.9l0,1.7c0,0,4.8,3.1,5.6,7.9c0.8,4.8-0.3,6-0.3,6l-2.4-6.4c0,0,0.9,5.8,0.6,7.3
		c-0.3,1.5-1.1-0.5-1.1-0.5s-1.3,5-3.2,7.7c-1.9,2.7-6.3,6-11.5,6.5c-5.2,0.5-17.3-0.1-19.5-0.2c-2.3-0.1-0.6,1.3-0.6,1.3
		s0.7,0.8,6.6,1.3c5.9,0.5,13.3,0.5,13.3,0.5s-7.2,9-3,11.9c4.2,2.9,9.1,4.8,10.3,6.4c1.2,1.6,1.9,2.4,1.9,2.4s-8.9,6.9-14.6,21.2
		c-5.7,14.4-8.7,23.3-11.1,25.8c-2.4,2.5-4.8,3.3-4.8,3.3s6.3-11.8,8.3-27.9c2.1-16.1,1-17.8,1-17.8l1.5,4.7c0,0,0.7-6.9-0.6-11.4
		c-1.3-4.5-3.1-7.9-3.1-7.9l2.1,1.8c0,0,0-3.2-2.3-4.8c-2.3-1.5-4-2.4-10.5-2.8c-6.6-0.5-20.1,8.3-20.1,8.3s0.6-1.6,0.7-3.5
		c0.1-1.9-1.2-2.2-1.2-2.2c-0.8,4-2.3,8.7-4.7,12.8c-8.3,14.3-28.6,16.4-30.2,1.8c-0.8-7.2,2.1-12.2,2.1-12.2
		c-1.6,8.1,0.7,16.8,10.5,15.8c6.7-0.7,12.5-7.7,16.1-13.6c4.4-7.2,7.7-12.8,11.9-15.7c4.2-2.9,11.7-7.5,15.8-11
		c4.1-3.6,5.3-12.2,5.3-12.2l4.1,4.5c0,0,0.3-0.2-0.6-3.5c-0.9-3.3-3.2-4.8-6.7-5.1c-3.5-0.3-4.6,1.3-4.6,1.3l0.9,1.1l3.5-0.1
		c0,0,2.1,5.5-1.6,10c-3.7,4.4-3.8,5.8-12.9,9.2c-9.1,3.4-29.3,6.2-29.3,6.2l1.5-3.9l-1.4,0.6c0,0-2,3.7-5.1,5.7
		c-3,2-4.2,2.7-4.2,2.7s-3.2-3.1-4.8-3.9c-1.6-0.8-2.6-0.7-1.3,0.4c1.2,1,4.1,4.2,4.1,4.2s0.4,0.5-2.3,1c-2.7,0.5-5,1.1-5,1.1
		s-1.2-3.3-2.1-4.8c-0.9-1.5-1-0.2-0.4,2c0.5,2.2,0.7,3.1,0.7,3.1s-2.8,1.7-6.8-1.3c-4-3-8.5-6.5-11.7-7.7c-3.2-1.1-4.9-1.5-4-0.5
		c0.9,0.9,3.8,2.9,3.8,2.9s-3.4,1.3-4.6,1c-1.2-0.3-2.3-1.3-2.6-2.7c-0.2-1.4-0.4-2.2-0.4-2.2s1.8-0.8,3-1.1
		c1.2-0.4,0.8-1.4-0.4-1.1c-1.2,0.3-2.3,0.8-2.3,0.8l-0.5-4.2c0,0-0.1,0.5,0.3-2.3c0.5-2.8,2.5-5.2,2.5-5.2s0.6,9.2,9.2,11.4
		C374.2,278.1,375.4,275.9,384.3,271.8L384.3,271.8z"/>
	<path class="st0" d="M392.3,290.7c-4.6,5-2.9,13.6,2.2,15.8c7.5,3.3,14-6.4,17.2-11.6c3.3-5.2,4.7-6.1,4.7-6.1s-0.2-2.4-3.4-2.9
		c-3.2-0.5-12.1,5.9-15.1,11.3c-3,5.3-1.7,1.6-0.1-1.6c1.6-3.3,5.6-7,5.6-7s-0.7-2.6-4.2-2c-3.5,0.7-5.6,3.6-5.6,3.6
		s1.4,1.5,1.5,3.4c0.1,2,0.1,4.1,0.1,4.1S395.2,295,392.3,290.7L392.3,290.7z"/>
	<path class="st0" d="M461.9,187.6l2.7-4.7c0,0-2.1-1.7-6.3-3.9c-4.2-2.2-5.7-2.8-5.7-2.8s-3.7,2.2-5.8,2.2c-2.2,0-3,0.2-3,0.2
		S453.4,182.5,461.9,187.6L461.9,187.6z"/>
	<path class="st0" d="M410.4,170c0,0,4-3.2,13.4-2.3c9.5,0.9,12.7,1.8,16.9,1.7c4.2-0.1,6.1-0.4,6.1-0.4l5.9,5.4c0,0-4.5,3.6-10.2,3
		c-5.7-0.6-7.3-2.2-14.2-3.2c-6.9-1-14.8,0.9-14.8,0.9S412.6,173.4,410.4,170L410.4,170z"/>
	<path class="st0" d="M414.3,166.5c0,0,3.8-13.7,13.6-17.1c9.8-3.4,26.2-5.2,37.2-4.6c11,0.6,29.9,9.2,37.3,19.8
		c7.4,10.7,7.6,14.5,7.5,19.5c-0.2,5.1,0.5,8.2,1.7,11.1c1.1,2.9,2.5,3.9,0.5,9.9c-1.9,5.9-5.2,14.4-5.2,14.4l-5.5-9.5
		c0,0,0.9-0.8,1-7.8c0.1-7-1.7-10.1-1.7-10.1l1.9,1.3c0,0-1-3.3-4.3-6.8c-3.3-3.5-6.2-5.1-6.2-5.1l2.5,0.2c0,0,0.3-0.9-4.2-2.3
		c-4.5-1.4-7.9-1.9-12.4-1.9c-4.5,0.1-10.9,3.5-10.9,3.5c-3.7-13.2-20.9-40.7-41.8-26.6c-5.2,3.5-7.2,11.8-7.2,11.8L414.3,166.5
		L414.3,166.5z"/>
	<path class="st2" d="M464.4,179.9c0,0-4.4-8.1-7.5-11.6c-3.1-3.5-3.4-4.9-3.4-4.9s-3.4,0.3-10.5,1.5c-15.8,2.7-21.3,0.4,0,3.1
		c3.3,0.4,4.7-0.5,4.7-0.5l7.8,6.3l-1.8,2C453.6,175.6,460.2,178.6,464.4,179.9L464.4,179.9z"/>
	<path class="st0" d="M505,164.8c0,0,0.8,1.4,2.2,3.6c1.4,2.1,1.9,3.3,1.9,3.3s1.1-1.6,0.7-4.1C509.3,165.1,508,164.6,505,164.8
		L505,164.8z"/>
	<path class="st0" d="M500,213l-4.5,4.7c0,0,2,9.5,11,16.8c9,7.3,22.6,13.7,25.3,18.5c2.7,4.8,0.2,6.3,0.2,6.3
		c0.5-7.1-4.8-8.8-18.8-13.8c-6.5-2.3-14.2-8.5-14.2-8.5s0.7,10.9-3.5,19c-4.2,8.1-6.8,9.6-6.8,9.6s13.9,9.8,27.6,4.8
		c13.7-5,21.6-10.8,18.9-17.2C532.3,246.9,518.5,246.4,500,213L500,213z"/>
	<path class="st2" d="M462.3,190.6l4-7.5l0.6,0.7c0,0,1.6-2.7,4.4-3.5c2.8-0.9,5.1-1.9,10.9-1c5.8,0.9,7.5,1.7,7.5,1.7l-1,0.6
		c0,0,4,2.7,6.2,4.7c2.2,2,3.7,4.4,3.7,4.4l-0.6,0.2c0,0,1.1,2.8,1.5,6.7c0.4,3.9,0.2,6.3,0.1,8.7c-0.1,2.4-0.5,4.6-2,6.7
		c-1.5,2.1-6,5.5-6,5.5l-1.6-0.4c0,0-0.6-2.1-1.4-2.1c-0.8,0,2.5-2.6,4.4-8.5c1.8-5.9,1.3-9.3,0.7-11.2c-0.6-1.9,1.4,1.1,1.4,1.1
		s0.1-2.4-4.1-6.2c-4.3-3.8-5.8-4.7-5.8-4.7l1.4-0.2c0,0,0.6-0.7-3.3-1c-3.9-0.3-8.5-1.1-12.7,1c-4.1,2.2-6.4,4.7-6.4,4.7
		L462.3,190.6L462.3,190.6z"/>
	<path class="st2" d="M420.3,236.6c0,0,2.3-12.5,8.5-14c6.3-1.5,11.5,2.9,11.9,7.6c0.3,4.7-0.7,6.4-0.7,6.4s-0.2-0.9-1-1.4
		c-0.8-0.5-1.7-0.5-1.7-0.5s1.5-1.7,0.7-4.5c-0.3,0.4-0.8,0.7-1.4,0.7c-0.9,0-1.6-0.8-1.5-1.7c0-0.8,0.7-1.5,1.5-1.5
		c-2.9-3-7.8-0.7-8.4,3.4c-0.3,1.8,0.1,3.6,0.1,3.6S425.5,234.5,420.3,236.6L420.3,236.6z"/>
	<path class="st2" d="M440.6,238.6c0,0,0.2-0.9-4.4-1.4c-4.6-0.4-7.5-0.3-11.2,0.2c-3.6,0.6-7,2.9-7.3,3.5c-0.2,0.6,2-0.1,4.4-0.6
		c2.4-0.6,11.1-0.3,13.7,0.4c2.6,0.6,2.9,0.2,2-0.1c-0.9-0.3-2-0.7-6.1-1.1c-4.1-0.5-6.6-0.4-6.6-0.4s3.5-0.8,7.4-0.6
		C436.4,238.7,441.9,240.2,440.6,238.6L440.6,238.6z"/>
	<path class="st0" d="M502.7,326.7c0,0,4.7-9.1,5-14.6c0.3-5.5-0.3-6.7-0.3-6.7s-4.7-3-7.3-5.5c-2.6-2.5-3.9-5.8-6.2-6.1
		c-2.3-0.2-9.5,4-12.7,7c-3.2,3-10.7,9.2-15.4,19.3c-4.8,10.1-10.3,26-11.7,28.5c-1.4,2.5-3.2,4.6-3.2,4.6s1.9,0,3.3,1.4
		c1.3,1.4,3.7,3.6,3.4,8.4c-0.3,4.9-3.2,11-8.5,11.9c-5.4,0.9-7.3-4.8-7.3-4.8s2.3,2.3,6,0.9c3.8-1.4,7.3-12.5,5.4-14.7
		c-1.8-2.3-5.7-1.9-9.1,3.1c-3.4,5-3.1,8.5-3.1,8.5l-0.8,0.7l-0.4-4.5l-3.5,2.3c0,0,1,8.4,0.6,14.1c-0.3,5.7-0.8,9.2-0.8,9.2
		s15.7-8.5,19.8-15.2c4-6.7,6.5-14.9,10.9-26.8c4.3-11.9,10.9-25.3,15.4-31.4c4.6-6.1,13.1-14.4,19.1-12.7c6,1.7,4.9,7.1,4.4,8.5
		c-0.5,1.4-4.4,12.1-4.4,12.1L502.7,326.7L502.7,326.7z"/>
	<path class="st2" d="M506.2,341.8c0,0-1.5-9.9-6.6-15.9c-5.1-6-11.1-13.6-11.1-13.6s-10.1,11-13.3,19.5c-3.2,8.5-6.2,12.8-6.9,17
		c-0.7,4.3-1.7,7.6-1.7,7.6l8.1,0.1l0.9-8.4c0,0,1.4-1.1,1,0.9c-0.3,2,0,6.8,0,6.8s2.5-6.7,2.2-4.1c-0.4,2.6-1.7,10.7-1.3,14.4
		c0.3,3.7,0.7,5.1,0.7,5.1l-3.1-11.2c0,0-1.7,7.8-0.9,15.3c0.8,7.5,10.5,25.7,10.5,25.7l1.2-13.5c0,0-3.2-12.3,0.6-20.7
		C490.2,358.5,494.6,353.5,506.2,341.8L506.2,341.8z"/>
	<path class="st2" d="M372.4,338.1c0,0,10.4-5.6,14-12.2c3.7-6.7,4.8-9.7,4.8-9.7l-3.3-1.7c0,0-4.6,2.5-7.4,3.9
		c-2.7,1.3-6.3,3.5-6.3,3.5l-4.7,14.7C369.6,336.6,370.9,337.7,372.4,338.1L372.4,338.1z"/>
	<path class="st2" d="M390.4,223.4l0.8-4.5c0,0-0.4-4.2-4-5.5c-3.6-1.4-5.5,3-5.7,7c-0.2,4,0.4,6.6,0.4,6.6l1.4,0.1
		c0,0-1.6-4.7,0.7-6.9c1.3-1.3,2.8-1.3,4-0.4c-0.3,0.3-0.5,0.9-0.5,1.5c-0.1,1.1,0.5,2,1.2,2.1c0.5,0,1-0.4,1.2-1
		C390.1,222.7,390.2,223,390.4,223.4L390.4,223.4z"/>
	<path class="st2" d="M379.4,229.5c0,0,2.1-1.3,4.1-1.2c2,0.1,3.8,0.9,3.8,0.9l-1.5,2.5c0,0-1.1-1.7-2.6-1.8
		C380.7,229.7,377.4,230.9,379.4,229.5L379.4,229.5z"/>
	<path class="st2" d="M409.1,170.2c0,0-0.7-2.4-3.7-4.4c-3-2-3-2.5-5.7-2.8c-2.7-0.3-4.5-0.7-4.5-0.7l1,1.1c0,0-4.9,1.9-6,4.1
		c-0.9,1.9-1.6,4.1-2.4,6.1c-1,2.3-2.2,9.3-2,13.4c0.3,4.1,1,7.9,1,7.9l1.5-2.3c0,0,0.1-6.2,0.4-10c0.3-3.8,1.4-7.2,2.8-9.1
		c1.3-1.9-1.7,0.3-0.5-1c1.2-1.2,1.9-3.4,3.1-3.8c2.1-0.7,2.2-1.2,1.1-1.5c0,0,1.7-0.2,3.3,0C400.3,167.4,401.2,166.6,409.1,170.2
		L409.1,170.2z"/>
	<path class="st48" d="M445,172.1c-1.8-0.1-4,0.7-2.8,1.4c1.2,0.7,2.9,0.7,4.5,0.5C448.3,173.8,448.3,172.3,445,172.1L445,172.1z
		 M445.1,171.2c-2.4-0.1-5.2,1.3-3.7,2.7c1.6,1.3,3.8,1.3,5.9,0.8S449.4,171.5,445.1,171.2L445.1,171.2z"/>
	<path class="st48" d="M465.8,165.9c0,0,6.3-3.1,15.7-3.4c9.4-0.3,19.9,3.8,19.9,3.8s-9.5-2.7-20-2.4c-10.5,0.2-14.9,3.5-14.9,3.5
		L465.8,165.9L465.8,165.9z"/>
	<path class="st2" d="M354.5,328.8c0,0-23.3,10.5-30,12c-6.7,1.6-13.1,4.3-13,9.7c0.1,5.4-0.9,23.7,0.6,28.5c1.6,4.8,3,5.6,3,5.6
		l25.9-19c0,0,0.9-3.5-0.2-5.8c-1.1-2.4-2.1-4.5-2.1-4.5l5.3-5.6c0,0,0.8-6.1,2.5-7.8c1.7-1.7,4.1-2.6,4.1-2.6L354.5,328.8
		L354.5,328.8z"/>
	<path class="st0" d="M441.7,358.7c0,0-1.2,3.6-3.2,4.4c-2,0.8-3.2,1.8-3.2,1.8s0.2,9.5-0.2,17.4c-0.4,7.9-0.7,10.5-0.7,10.5
		s3.7-1.9,6.4-3c2.8-1.1,4-2.4,4-2.4l2.7,4.5c0,0,5.6-5.6,9.6-12.2c4-6.6,8.8-20.9,8.8-20.9l7.1,0.8c0,0-3.6,14.1-1,23.8
		c2.6,9.7,11.4,20.8,11.4,20.8s2.4,9.8,3.3,11.2c0.8,1.2,2.9,3.2,3.6,3.8c-23.4,14.1-51.1,21.6-80.4,20c-39.9-2.2-75-20.7-99.2-48.7
		c16.6-10,31.1-14.1,31.1-14.1l-16.7,4.6l16.2-13.4l0,5.2c0,0,1.5-0.2,3.5-0.6c2-0.4,3.1-1.3,3.1-1.3l1-0.8l1.2,2.6l11.2-9.8
		c0,0,4-11.4,6.8-16.3c2.8-4.8,3.6-5,3.6-5s9.7,8.7,25.2,12C412.5,356.8,419.2,358.5,441.7,358.7L441.7,358.7z"/>
	<path class="st48" d="M371.3,391.5c0,0-3.4-4.8-11.6-4.9c-3.1-0.1-6.3,0.6-8.9,1.6c-4.4,1.7-7.3,4.3-7.3,4.3
		c-1.1-0.7-2.4-1.4-3.7-2.4c-1.6-1.2-3.1-2.9-4-4.1c0.9,3.9,3.3,4.8,6.5,7.7c0,0-5.6,7.9-7.6,14.9c-2,7-2.4,9.1-5.7,13.3
		s-7.4,7.3-3.8,10.4c3.6,3.1,7.8,4.3,6.4,9.8c-1.4,5.5-5.2,10.7,0.1,13.5c5.3,2.8,9.4,3.6,10,10.3c0.6,6.7,1.2,5.6,1.2,5.6
		s1.2-4.9,4.5-8.3c3.2-3.3,10.8-3.9,16-9.7c5.2-5.8,8.3-12.5,11.6-20.8c3.2-8.3,7.1-16.2,9.6-18.1c2.5-2,2.6-1.3,2.6-1.3
		s4.7,3,16.4,4.1c11.6,1,17.7-2.8,17.7-2.8s-7.2,1.7-11.9,1.6c-4.7-0.1-5.1-0.4-5.1-0.4s2.5-4.9-3.4-9.7c-5.9-4.8-12.6-6.1-12.6-6.1
		S380.5,387.8,371.3,391.5L371.3,391.5z"/>
	<path class="st51" d="M369.7,391.7c0,0-4.5-3.9-10.3-3.9c-11.3-0.1-17.6,6.8-21.4,16.3c-2.3,5.7-4.3,12.1-4.3,12.1s3.5-4.1,6.1-8
		c2.6-3.9,4.2-7.9,4.2-7.9s-2.1,7.3-6.8,13.3c-4.8,6-9.2,11.4-11.2,14.3c-2.6,3.7,6.6,6.9,7.3,10.5c0.2,1,0,2.3-0.6,4.5
		c-1.9,6.4-4,9.4,0.5,12c4.5,2.6,8.2,2.5,9,5.6c0.8,3.1,0.8,7.7,0.8,7.7s2.7-6.7,7.6-9.3c4.9-2.7,10.7-1.8,15.3-10.5
		c4.6-8.7,10.7-25.3,15-30.9c4.3-5.6,7.4-8.4,11-7.1c3.6,1.3,3.1,4.2,3.1,4.2l8.4,1.3c0,0,1.4-5.4-3.6-8.8c-5-3.5-4.8-4.4-11.9-5.7
		c-7.2-1.2-12-3.9-12-3.9s2.3,0.4,5.4,1c3,0.6,4.8,0.8,4.8,0.8s-3-3.8-5.8-5.2c-2.8-1.4-3.9-2.3-9.1-0.9c-5.2,1.4-13.2,2.6-19.7,14
		c-6.5,11.3-11.2,22.2-15.7,22.8c-4.5,0.6-5.3-2.2-4.7-4s3.8-3.3,3.8-3.3s-3.5,3-2.6,4.5c0.9,1.4,2.4,2.1,5,0
		c2.6-2.1,8.2-12.4,11.4-18C351.8,403.5,355.9,394.7,369.7,391.7L369.7,391.7z"/>
	<path class="st48" d="M375.6,407c-2.3,6.3-14,38.5-20.9,37.2c-3.2-0.6-3.2-2.4-3.2-2.4s4.2-4.8,7.3-9.1c3.2-4.3,4.5-6.6,6.4-10.7
		c1.9-4.1,2.9-6.5,2.9-6.5c-4,7.3-10.3,16.2-16.3,23.2c-3,3.5-6.6,14.4-4.8,11.3l3.9-6.9c0,0,1.4,2.4,3.3,2.5c1.9,0.1,4,0.2,7.1-4.4
		C364.3,436.7,371.1,425.3,375.6,407L375.6,407z"/>
	<path class="st48" d="M361.8,367.6c0,0,27.2-4.9,35.7,0.1c8.5,4.9,5.2,7.8-2.4,5.7c-7.6-2-8.9-2-17.3-2.2
		c-8.5-0.2-11.5,0.8-11.5,0.8s6.4-2.3,16.9-1.3c9.6,0.9,16.4,2.9,17.6,2c1.2-0.9-2.7-4.5-9.5-5.2
		C382.6,366.6,376.5,367.3,361.8,367.6L361.8,367.6z"/>
	<path class="st48" d="M501.5,339.2c0,0,5.7-39.6,18-58.9c12.4-19.3,26.9-26.7,36.8-18.4c9.9,8.3,11.3,21.5,5.3,39.6
		c-6,18.1-19,28.9-19,28.9l-5.3,10.3c0,0,27.2,12.5,28.7,28.8c1.6,16.3,3.4,24.1-2.5,28.2c-5.9,4-6.9,5-6.9,5s-0.8,13.1-5.9,17.6
		c-5.1,4.4-7.2,5.3-7.2,5.3s-3.1,12.9-11.6,13.5c-8.5,0.6-30.6-3.4-40-7.1c-9.4-3.7-12-9.7-11.6-17.6c0.4-7.8,2.3-15.8,2.3-15.8
		s-1.4-2.2-0.2-9.6c1.2-7.5,1.9-10.5,1.9-10.5S475.2,360.9,501.5,339.2L501.5,339.2z"/>
	<path class="st2" d="M494.5,351.5c0,0,2.9-5,6.4-7.9c3.5-2.9,3.5-4.9,3.5-4.9s6.7-36.6,18.9-56.8c12.2-20.1,26.3-24.3,32.8-14.1
		c6.6,10.2,8.8,27.7-3.7,46.3c-12.6,18.7-28,20.4-28,20.4l1.7,1.9l13.7-5.6c0,0-8,11.7-13.5,16.9c-5.5,5.2-4.7,5.9-2.7,5.3
		c2-0.6,12-9.7,12-9.7s18.7,10.3,23.5,19.1s6.1,24.5,4,30.4c-2.2,5.9-28.4,10.4-42.5,8.3c-14.1-2.1-13.6-1.8-14.1-6.3
		c-0.5-4.6,2.7-14,2.7-14s-3.3,3.8-3.9,8.2c-0.6,4.4-0.4,7.6-0.4,7.6s-12.9-9.6-15.8-15.3c-2.9-5.7-4.6-10.2-1.9-17.7
		c2.7-7.6,2.7-9.8,7.9-9.1c5.3,0.7,14.5,5.8,19.7,9.3c5.2,3.5,7.3,6.9,7.3,6.9l-6.2,2c0,0,7.4-0.7,16.7-0.1
		c9.2,0.6,18.1-0.8,18.1-0.8l-14.1-2.1c0,0,0.1-2.8,0.6-7c0.5-4.2-0.3-6.5-1.3-2.7c-1.1,3.8-1.7,8.5-1.7,8.5l-7.8,1.5
		C526.2,370,514.7,356.4,494.5,351.5L494.5,351.5z"/>
	<path class="st2" d="M486.2,383.2c0,0,10.5,12.6,18.2,16.4c7.7,3.8,11.3,4,24.8,4.9c13.4,0.9,25.7-2.6,25.7-2.6s-0.8,17.4-12.3,19
		c-11.5,1.6-22.7,1-29.3-2.1c-6.6-3.1-9.8-9.2-9.8-9.2l2.8,8.8C506.2,418.5,478.2,403.3,486.2,383.2L486.2,383.2z"/>
	<path class="st2" d="M484.1,401.2c0,0,9.5,15.9,20.6,19.3c11.1,3.4,36.3,4.7,36.3,4.7s-0.3,9.3-11.2,10.4
		c-10.9,1.1-27.3-2.7-34.5-5.6C488.1,427.1,478.1,421.9,484.1,401.2L484.1,401.2z"/>
</g>
</svg>
